<svg width="24" height="15" viewBox="0 0 24 15" fill="none" xmlns="http://www.w3.org/2000/svg">
<g id="flag-HR">
<path id="Fill 1" fill-rule="evenodd" clip-rule="evenodd" d="M0 10.0357H23.6894V5.37354H0V10.0357Z" fill="white"/>
<path id="Fill 2" fill-rule="evenodd" clip-rule="evenodd" d="M0 14.6985H23.6894V10.0356H0V14.6985Z" fill="#1E2788"/>
<path id="Fill 3" fill-rule="evenodd" clip-rule="evenodd" d="M0 5.37362H23.6894V0.713623H0V5.37362Z" fill="#CB0028"/>
<g id="Group 301">
<path id="Fill 4" fill-rule="evenodd" clip-rule="evenodd" d="M9.10058 5.30686C9.94693 5.00114 10.8886 4.83686 11.8083 4.83543C12.7267 4.83257 13.6627 4.97757 14.5888 5.314L15.2799 3.90757L14.7942 3.05257C14.7942 3.05257 13.9288 3.41257 13.9232 3.41257C13.9161 3.41257 13.3126 2.73971 13.3126 2.73971L12.5389 3.214L11.8126 2.65186L11.13 3.20614L10.3302 2.73686L9.74999 3.439L8.87752 3.06043L8.40881 3.90757L9.10058 5.30686Z" fill="white"/>
<path id="Fill 6" fill-rule="evenodd" clip-rule="evenodd" d="M8.86902 3.07886L8.42785 3.91743L9.11608 5.29815C9.94408 4.98029 10.8857 4.816 11.8083 4.816C12.7803 4.816 13.7071 4.97458 14.5824 5.28886L15.2622 3.89743L14.778 3.06386C13.9344 3.43172 13.9288 3.43172 13.9231 3.43172C13.9111 3.43172 13.9083 3.43172 13.2998 2.75386L12.5502 3.231L11.7998 2.66743L11.1427 3.221L10.321 2.75529L9.76549 3.451L8.86902 3.07886ZM14.5987 5.34029L14.5838 5.33458C13.7078 5.01672 12.7803 4.85458 11.8274 4.85458C10.8886 4.85743 9.95538 5.021 9.10479 5.326L8.39185 3.91743L8.85914 3.051L9.75843 3.421L10.3154 2.72458L11.1398 3.18743L11.7998 2.63672L12.5502 3.19743L13.3041 2.72315C13.5603 2.98529 13.9161 3.37886 13.9344 3.39529C13.9422 3.38458 14.5535 3.13029 14.7864 3.03315L15.2975 3.89743L14.5987 5.34029Z" fill="#CB0028"/>
<path id="Fill 8" fill-rule="evenodd" clip-rule="evenodd" d="M13.5193 4.9177L13.916 3.50413L14.7616 3.15698L15.2056 3.91484L14.5654 5.23841C14.1976 5.08913 14.0007 5.02627 13.5193 4.9177Z" fill="#3A7AA1"/>
<path id="Fill 10" fill-rule="evenodd" clip-rule="evenodd" d="M14.756 3.15851L13.9167 3.50851L13.5249 4.9178C14.0113 5.02351 14.2033 5.08637 14.5633 5.23137L15.2014 3.91351L14.756 3.15851ZM14.5682 5.24422L14.5633 5.2428C14.2033 5.09637 14.0113 5.03351 13.5193 4.92208L13.9111 3.50422L14.7588 3.15137L15.2113 3.91351L14.5682 5.24422Z" fill="#4C73D5"/>
<path id="Fill 12" fill-rule="evenodd" clip-rule="evenodd" d="M11.2926 4.76431L11.1606 3.30217L11.8334 2.76074L12.5336 3.30074L12.4094 4.76431C12.0218 4.7436 11.7465 4.74646 11.2926 4.76431Z" fill="#3A7AA1"/>
<path id="Fill 14" fill-rule="evenodd" clip-rule="evenodd" d="M11.8276 2.76227L11.1634 3.3037L11.2982 4.76298C11.738 4.73513 12.0203 4.74084 12.4036 4.76013L12.5293 3.29941L11.8276 2.76227ZM12.4135 4.77013H12.4093C12.0217 4.7487 11.7464 4.75013 11.2926 4.77013L11.1549 3.30227L11.8276 2.75513L12.5363 3.29656L12.4135 4.77013Z" fill="#4C73D5"/>
<path id="Fill 16" fill-rule="evenodd" clip-rule="evenodd" d="M9.13363 5.23719L8.5061 3.8979L8.92399 3.15576L9.79152 3.5379L10.1593 4.92219C9.75975 5.00433 9.55293 5.0729 9.13363 5.23719Z" fill="#3A7AA1"/>
<path id="Fill 18" fill-rule="evenodd" clip-rule="evenodd" d="M8.92414 3.1612L8.5119 3.90048L9.13379 5.2312C9.53755 5.07262 9.75567 4.99977 10.1566 4.91477L9.78602 3.54048L8.92414 3.1612ZM9.13096 5.24405L8.50061 3.89762L8.91849 3.15405L9.79379 3.53477L10.1651 4.92048C9.75849 5.0112 9.54037 5.08334 9.13379 5.2412L9.13096 5.24405Z" fill="#4C73D5"/>
<path id="Fill 20" fill-rule="evenodd" clip-rule="evenodd" d="M8.99854 4.56201C9.19124 4.58415 9.32536 4.57343 9.49195 4.51629C9.68677 4.42272 9.74959 4.31486 9.80889 4.22843C9.85477 4.39843 9.83642 4.55772 9.61477 4.68772C9.41501 4.79343 9.13054 4.75986 8.99854 4.56201Z" fill="white"/>
<path id="Fill 22" fill-rule="evenodd" clip-rule="evenodd" d="M9.36799 4.7517C9.21058 4.7517 9.07152 4.68455 8.99316 4.56455C9.05669 4.56455 9.10752 4.56741 9.15552 4.56741C9.27411 4.56741 9.37363 4.55241 9.4894 4.5117C9.67152 4.42527 9.73505 4.32884 9.79434 4.24384C9.73999 4.3417 9.66869 4.43955 9.49222 4.5217C9.32493 4.57598 9.19152 4.58812 8.99881 4.56741C9.12234 4.73527 9.40681 4.79098 9.61222 4.68455C9.79434 4.57598 9.83105 4.4517 9.82399 4.33741C9.84234 4.44884 9.80634 4.5817 9.61646 4.69027C9.54305 4.73098 9.45905 4.7517 9.36799 4.7517Z" fill="white"/>
<path id="Fill 24" fill-rule="evenodd" clip-rule="evenodd" d="M12.0152 3.52805L11.9763 3.53805L11.9792 3.60734L11.9297 3.61734L11.8994 3.67876L11.917 3.69519C11.9199 3.69805 11.9022 3.74162 11.905 3.74162L11.917 3.75805L11.9283 3.79591L11.9615 3.80162L11.9686 3.84448L12.018 3.85019L12.0632 3.88376L12.066 3.90448L12.1175 3.90591L12.1528 3.91734L12.2785 3.90162L12.2961 3.87805V3.84162L12.3625 3.84019L12.3709 3.78305H12.4041L12.3985 3.71948L12.4288 3.72162L12.4217 3.69234L12.4041 3.66591L12.3985 3.62734L12.3476 3.57662L12.3377 3.50876L12.3046 3.49305C12.3046 3.49162 12.3017 3.44876 12.3017 3.44876L12.3377 3.39305L12.3349 3.37448L12.3017 3.37305L12.2728 3.39305C12.2728 3.39305 12.2396 3.39805 12.2396 3.39948V3.41519C12.2396 3.41519 12.2481 3.44448 12.2481 3.44591H12.2093L12.2065 3.39805L12.15 3.37019C12.15 3.37019 12.0963 3.40662 12.0963 3.40805L12.0935 3.44876L12.0688 3.45519L12.0427 3.41662L11.9975 3.39948L11.9714 3.39805V3.42876L12.0208 3.49019L12.0152 3.52805Z" fill="#FBFC2B"/>
<path id="Fill 26" fill-rule="evenodd" clip-rule="evenodd" d="M12.2146 4.10938L12.2656 4.12538L12.4396 4.10538L12.4486 4.07638L12.4466 4.03338L12.5586 4.01538L12.5506 3.95138L12.6166 3.93738L12.5956 3.86538L12.6556 3.85138L12.6016 3.80038L12.5956 3.73838L12.5266 3.67337L12.5036 3.57237C12.4566 3.55838 12.4566 3.55838 12.4566 3.54737L12.4526 3.48438L12.5116 3.40038L12.4726 3.39438L12.4436 3.42238C12.4356 3.42537 12.3966 3.42738 12.3886 3.43138C12.4136 3.47638 12.4136 3.47637 12.4136 3.48037L12.3416 3.49637L12.3196 3.41437L12.2496 3.39037C12.2536 3.39637 12.2026 3.42738 12.1936 3.43738C12.1946 3.43937 12.1936 3.48438 12.1936 3.48438V3.49837L12.1446 3.50738L12.0916 3.44937L12.0366 3.43138L12.0236 3.45737L12.0836 3.53537L12.0796 3.59738L12.0156 3.62337L12.0286 3.70737L11.9486 3.73438L11.9176 3.81237C11.9446 3.83437 11.9446 3.83637 11.9316 3.87738C11.9216 3.87937 11.9216 3.88037 11.9396 3.91037L11.9606 3.96438L11.9896 3.96137L12.0156 4.03537L12.0736 4.03338L12.1486 4.08637L12.1526 4.11938L12.2146 4.10938ZM12.2576 4.15638L12.1246 4.14038L12.1206 4.09738L12.0586 4.06238L11.9956 4.05438L11.9726 3.98038L11.9436 3.98838L11.9026 3.86538L11.9276 3.83037L11.8926 3.81838L11.9316 3.71338L12.0116 3.68738L11.9936 3.60938L12.0626 3.58037L12.0546 3.54137L11.9896 3.46638V3.41237V3.39638L12.0406 3.40038L12.1096 3.42538L12.1526 3.48438L12.1636 3.42538C12.1636 3.41638 12.1636 3.41638 12.2456 3.35938L12.3456 3.40038L12.3556 3.47838L12.3806 3.46338L12.3666 3.44138C12.3666 3.40038 12.3706 3.39837 12.4316 3.39037L12.4606 3.36538L12.5196 3.36138H12.5326L12.5406 3.40637L12.4826 3.49238L12.4896 3.54737C12.4896 3.53537 12.5266 3.55437 12.5266 3.55437L12.5546 3.66037L12.6246 3.72438L12.6676 3.86338L12.6096 3.88038L12.6346 3.95138L12.5696 3.96838L12.5776 4.03338L12.4646 4.05038L12.4786 4.08637L12.4526 4.13038L12.2576 4.15638Z" fill="#C2A21F"/>
<path id="Fill 28" fill-rule="evenodd" clip-rule="evenodd" d="M11.9201 3.68993L11.9765 3.68708L11.9864 3.73565L12.0041 3.75565L12.0069 3.84208L12.0245 3.85065L12.0302 3.81422L12.0704 3.81136L12.0789 3.88351L12.0704 3.89493L12.0733 3.90493L12.1255 3.90208L12.1382 3.88351C12.1382 3.88351 12.1657 3.88136 12.1657 3.88279C12.1657 3.88351 12.1763 3.90208 12.1763 3.90208L12.1834 3.87565L12.2123 3.86422C12.2123 3.86565 12.2328 3.90065 12.2328 3.90065L12.2702 3.89493L12.2483 3.87422L12.237 3.82779L12.2907 3.79851L12.309 3.83351C12.309 3.83351 12.3295 3.83493 12.3267 3.83351C12.3267 3.83208 12.3048 3.79351 12.3048 3.79351V3.71208L12.345 3.65922L12.3987 3.65351V3.62993L12.345 3.58136L12.3323 3.51136L12.302 3.49636L12.2935 3.50565L12.2582 3.50708L12.2935 3.55851V3.59065L12.3062 3.59922L12.3048 3.68993C12.3048 3.68993 12.266 3.69422 12.266 3.69565L12.2631 3.74422L12.2398 3.76922L12.2278 3.81422C12.225 3.81422 12.2038 3.84493 12.2038 3.84493H12.1615C12.1615 3.84493 12.1354 3.82279 12.1354 3.81993L12.1325 3.78636L12.1142 3.78065C12.1114 3.78065 12.105 3.74136 12.105 3.74136L12.0733 3.72636V3.70422L12.0457 3.69279L12.0429 3.67208C12.0401 3.66922 12.0274 3.66208 12.0274 3.66208V3.60493L12.0514 3.60065L12.0373 3.58422L12.033 3.56851V3.55065L12.0535 3.53208C12.0535 3.53208 12.0154 3.52565 12.0154 3.52636L11.9822 3.54208L11.9794 3.61065L11.9377 3.61993L11.9024 3.67565L11.9201 3.68993Z" fill="#C2A21F"/>
<path id="Fill 30" fill-rule="evenodd" clip-rule="evenodd" d="M12.4629 3.51092L12.4119 3.53192L12.4709 3.57492L12.4879 3.75892L12.5219 3.71592L12.6079 3.70192L12.5219 3.62792L12.4959 3.52292L12.4629 3.51092ZM12.4299 3.78992C12.4339 3.79792 12.4339 3.84692 12.4339 3.84692L12.3949 3.89192C12.3789 3.93892 12.3769 3.95392 12.3689 3.95792L12.4449 3.90692L12.4669 3.92892C12.4629 3.92692 12.4629 3.92492 12.4629 3.92292L12.4589 3.79992L12.4749 3.77692C12.4629 3.78192 12.4379 3.78792 12.4299 3.78992ZM12.3769 4.08092C12.3279 4.02292 12.3279 4.01892 12.3279 4.01292L12.3029 4.02892L12.3069 4.03792L12.2989 4.01292C12.3359 3.99692 12.3399 3.99692 12.3439 3.99692C12.3609 4.01292 12.3869 4.05592 12.3869 4.05592L12.4239 4.03992L12.3829 4.03792L12.3649 3.96192L12.3689 3.95792C12.3689 3.96192 12.3649 3.96192 12.3649 3.96192L12.3439 3.99292L12.2719 4.00092C12.2209 3.96192 12.2209 3.95792 12.2209 3.94992L12.2129 3.90592C12.1919 3.91092 12.1919 3.91092 12.1759 3.84692L12.1369 3.83092L12.1329 3.78992L12.0959 3.78192L12.0859 3.74692C12.0649 3.74492 12.0649 3.74492 12.0649 3.64992V3.63392L12.1149 3.62792L12.1469 3.65692L12.0899 3.66292C12.0959 3.67492 12.0959 3.71792 12.0959 3.72592L12.1619 3.77692L12.1659 3.81992L12.1969 3.83092C12.2089 3.84092 12.2169 3.88192 12.2209 3.88792C12.2439 3.90192 12.2519 3.94992 12.2519 3.94992L12.2809 3.97192L12.3279 3.96792C12.3499 3.92892 12.3539 3.92892 12.3609 3.92892C12.3499 3.92892 12.3649 3.87392 12.3649 3.87392L12.4039 3.83292L12.4009 3.77692C12.4009 3.75892 12.4009 3.75892 12.4749 3.75092L12.4419 3.58492L12.3949 3.52492L12.4549 3.49292L12.5219 3.50492L12.5489 3.61292L12.6269 3.67892V3.71792L12.5349 3.74292L12.4879 3.80992L12.4919 3.91292C12.4959 3.91292 12.5179 3.95592 12.5219 3.96192L12.4809 3.98592L12.4419 3.93092L12.3869 3.97592L12.4379 4.04392L12.3769 4.08092ZM12.1369 4.08692L12.1289 4.05992V3.94292L12.0859 3.95792L12.0919 3.99292V4.01492L12.0449 3.99692L12.0349 3.86092L11.9919 3.76892L11.9259 3.78592L11.8969 3.76092L11.9419 3.66292L12.0059 3.63792C11.9979 3.63392 11.9979 3.56992 11.9979 3.56192C12.0179 3.54392 12.0489 3.52892 12.0569 3.52692C12.0739 3.52292 12.1229 3.52892 12.1229 3.52892L12.0959 3.61292L12.0719 3.59892L12.0959 3.55592C12.0859 3.55992 12.0719 3.55592 12.0679 3.55592C12.0779 3.56192 12.0489 3.56992 12.0309 3.57292C12.0349 3.58292 12.0309 3.60692 12.0309 3.65692L11.9589 3.68892L11.9219 3.75892L12.0059 3.75092L12.0389 3.83092L12.0719 3.98192L12.0679 3.94292L12.1429 3.92292L12.1739 4.03792L12.1619 4.05192L12.2339 4.04392V4.07692L12.1369 4.08692Z" fill="#C2A21F"/>
<path id="Fill 32" fill-rule="evenodd" clip-rule="evenodd" d="M12.1323 3.78212L12.1613 3.76569V3.73498L12.1323 3.72784L12.1253 3.71926L12.15 3.72212L12.1916 3.71926L12.2043 3.71355C12.1973 3.72641 12.1945 3.72641 12.1916 3.72641L12.1712 3.73641V3.76784L12.2354 3.77498C12.2354 3.77498 12.2354 3.78784 12.2333 3.78784C12.2305 3.78784 12.1683 3.77212 12.1683 3.77212L12.1281 3.79712L12.1323 3.78212Z" fill="#613F21"/>
<path id="Fill 34" fill-rule="evenodd" clip-rule="evenodd" d="M12.1172 3.81142L12.1299 3.77927L12.1589 3.76142L12.1504 3.72927L12.1652 3.73499V3.72927L12.1913 3.71927V3.72642L12.1737 3.74142L12.1779 3.76785C12.24 3.7707 12.24 3.7707 12.24 3.77499C12.2302 3.79213 12.2302 3.79213 12.1652 3.77785L12.1172 3.81142Z" fill="#C2A21F"/>
<path id="Fill 36" fill-rule="evenodd" clip-rule="evenodd" d="M12.2936 3.59085L12.2576 3.62013L12.2329 3.66227L12.2216 3.6637L12.1835 3.61727H12.1419C12.1419 3.61727 12.12 3.67299 12.12 3.67442L12.1045 3.67156L12.0607 3.62585C12.0607 3.62585 12.048 3.60227 12.0508 3.60227C12.0536 3.60227 12.1588 3.6037 12.1588 3.6037V3.55299C12.1588 3.55299 12.1405 3.54727 12.132 3.54227C12.1376 3.54085 12.1913 3.54085 12.1913 3.54085L12.168 3.55442V3.59942L12.2633 3.60085L12.2936 3.59085Z" fill="#C2A21F"/>
<path id="Fill 38" fill-rule="evenodd" clip-rule="evenodd" d="M12.2178 3.6333L12.0558 3.6473L12.1418 3.7173C12.1498 3.7073 12.1538 3.6903 12.1708 3.6473L12.2218 3.6433L12.2178 3.6333ZM12.1538 3.7503L12.1278 3.7463L12.0518 3.6663L12.0398 3.6233L12.2078 3.6153L12.1928 3.5653L12.2078 3.5553C12.1998 3.5593 12.1968 3.5593 12.1888 3.5613C12.1748 3.5293 12.2038 3.5293 12.2548 3.5293H12.3058L12.2338 3.5803L12.2388 3.6273L12.3958 3.6023L12.3178 3.7253L12.2838 3.7293L12.2338 3.6603L12.1888 3.6703C12.1968 3.6743 12.1748 3.7313 12.1708 3.7383L12.1538 3.7503Z" fill="#C2A21F"/>
<path id="Fill 40" fill-rule="evenodd" clip-rule="evenodd" d="M12.102 3.61733H12.1119C12.1168 3.61733 12.1197 3.62019 12.1197 3.62304V3.63233C12.1197 3.63804 12.1168 3.6409 12.1119 3.6409H12.102C12.0964 3.6409 12.0935 3.63804 12.0935 3.63233V3.62304C12.0935 3.62019 12.0964 3.61733 12.102 3.61733Z" fill="#613F21"/>
<path id="Fill 42" fill-rule="evenodd" clip-rule="evenodd" d="M12.2192 3.61196H12.2277C12.2333 3.61196 12.2354 3.61482 12.2354 3.62053V3.62696C12.2354 3.63267 12.2333 3.63553 12.2277 3.63553H12.2192C12.2164 3.63553 12.2121 3.63267 12.2121 3.62696V3.62053C12.2121 3.61482 12.2164 3.61196 12.2192 3.61196Z" fill="#613F21"/>
<path id="Fill 44" fill-rule="evenodd" clip-rule="evenodd" d="M12.0509 3.5421L12.0368 3.53496L12.0424 3.52139C12.0756 3.50568 12.106 3.49639 12.1504 3.49068C12.2013 3.48496 12.2373 3.4921 12.2782 3.49853C12.233 3.51568 12.2013 3.50853 12.1554 3.51425C12.1116 3.51853 12.0869 3.52925 12.0509 3.5421Z" fill="#C2A21F"/>
<path id="Fill 46" fill-rule="evenodd" clip-rule="evenodd" d="M12.0606 3.45152H12.0275L11.9851 3.40437L12.007 3.40794L12.0373 3.4208L12.0606 3.45152Z" fill="#C2A21F"/>
<path id="Fill 48" fill-rule="evenodd" clip-rule="evenodd" d="M12.0813 3.46544H12.0277L11.95 3.39044L12.0425 3.41116L12.0813 3.46544Z" fill="#C2A21F"/>
<path id="Fill 50" fill-rule="evenodd" clip-rule="evenodd" d="M12.2523 3.43332L12.3243 3.37904L12.3017 3.37618L12.2728 3.39975L12.2424 3.40546L12.2523 3.43332Z" fill="#C2A21F"/>
<path id="Fill 52" fill-rule="evenodd" clip-rule="evenodd" d="M12.2095 3.44435L12.0965 3.44864L12.0993 3.43578L12.1403 3.43149L12.1445 3.41506H12.1586C12.1586 3.41649 12.1657 3.43149 12.1657 3.43149L12.2066 3.43864L12.2095 3.44435Z" fill="#C2A21F"/>
<path id="Fill 54" fill-rule="evenodd" clip-rule="evenodd" d="M12.0841 3.45979L12.0869 3.43479L12.1406 3.42051L12.1173 3.43622L12.1505 3.43336L12.1476 3.42051L12.2098 3.42622L12.2189 3.44479L12.2126 3.45551L12.0841 3.45979Z" fill="#C2A21F"/>
<path id="Fill 56" fill-rule="evenodd" clip-rule="evenodd" d="M12.204 3.40266H12.1652L12.1638 3.38194L12.204 3.40266Z" fill="#C2A21F"/>
<path id="Fill 58" fill-rule="evenodd" clip-rule="evenodd" d="M12.1378 3.38156L12.135 3.40228L12.0962 3.41085L12.1378 3.38156Z" fill="#C2A21F"/>
<path id="Fill 60" fill-rule="evenodd" clip-rule="evenodd" d="M11.9228 3.77224L11.9405 3.72367L11.9256 3.69009L11.908 3.73867L11.9228 3.77224Z" fill="#C2A21F"/>
<path id="Fill 62" fill-rule="evenodd" clip-rule="evenodd" d="M11.9614 3.7988L11.9861 3.74166L11.9409 3.7888L11.9614 3.7988Z" fill="#C2A21F"/>
<path id="Fill 64" fill-rule="evenodd" clip-rule="evenodd" d="M11.9655 3.81402L11.9351 3.79902L11.9768 3.73616L11.9493 3.79616L11.9613 3.79902L11.9507 3.79474L11.9768 3.73474L11.9655 3.81402Z" fill="#C2A21F"/>
<path id="Fill 66" fill-rule="evenodd" clip-rule="evenodd" d="M11.3906 3.5476L11.3518 3.5576L11.3546 3.62688L11.3094 3.63831L11.2748 3.69831L11.2953 3.71617C11.2953 3.71903 11.2805 3.7626 11.2805 3.7626C11.2833 3.7626 11.2925 3.7776 11.2925 3.7776L11.3038 3.81688L11.337 3.81974L11.3454 3.86403L11.3934 3.8726L11.4386 3.90474L11.4414 3.92546L11.4951 3.92688L11.5311 3.93688L11.6539 3.9226L11.6715 3.8976V3.86117L11.7379 3.85974L11.7464 3.80403H11.7795L11.7767 3.73903L11.8085 3.74117L11.7972 3.71188L11.7795 3.68688L11.7767 3.64831L11.7231 3.59617L11.7132 3.52974L11.6786 3.51403C11.6786 3.51117 11.6772 3.46831 11.6772 3.46831L11.7146 3.41474L11.7104 3.3926H11.6772L11.6483 3.41474L11.6151 3.41903V3.43474L11.6235 3.46546H11.5847L11.5819 3.41903L11.5254 3.39117L11.4718 3.42617L11.469 3.46831L11.4443 3.47474L11.4181 3.4376L11.373 3.42046L11.3468 3.41903V3.44831L11.3948 3.51117L11.3906 3.5476Z" fill="#FBFC2B"/>
<path id="Fill 68" fill-rule="evenodd" clip-rule="evenodd" d="M11.5913 4.12759L11.6423 4.14359L11.8123 4.12559L11.8273 4.09659V4.05359L11.9353 4.03359L11.9293 3.97159L11.9933 3.95559L11.9723 3.88559L12.0343 3.87159L11.9843 3.82059L11.9723 3.75659L11.9023 3.69359L11.8823 3.59259C11.8333 3.57659 11.8333 3.57659 11.8333 3.56659L11.8313 3.50259L11.8883 3.41859L11.8493 3.41459L11.8203 3.44059C11.8123 3.44359 11.7693 3.44759 11.7653 3.44759C11.7903 3.49459 11.7903 3.49459 11.7903 3.49859L11.7183 3.51459L11.7003 3.43459L11.6283 3.41059C11.6323 3.41459 11.5813 3.44759 11.5703 3.45559C11.5733 3.46159 11.5703 3.50459 11.5703 3.50459V3.51659L11.5273 3.52959L11.4683 3.46959L11.4133 3.45159L11.3983 3.47559L11.4603 3.55359L11.4563 3.61759L11.3923 3.64559L11.4053 3.72559L11.3273 3.75459L11.2943 3.83259C11.3273 3.85459 11.3273 3.85459 11.3083 3.90459C11.2963 3.89859 11.2963 3.90059 11.3163 3.92859L11.3373 3.98259L11.3663 3.97959L11.3923 4.05359H11.4483L11.5303 4.10459L11.5323 4.13959L11.5913 4.12759ZM11.6383 4.17659L11.4993 4.15859L11.4973 4.11759L11.4393 4.08259L11.3743 4.07259L11.3473 3.99859L11.3203 4.00659L11.2773 3.89159C11.2823 3.87559 11.2903 3.85459 11.2943 3.85059L11.2653 3.81659L11.3123 3.73159L11.3883 3.70759L11.3743 3.62759L11.4393 3.60059L11.4313 3.56359L11.3663 3.48459V3.43259V3.41659L11.4213 3.41859L11.4863 3.44359L11.5323 3.50459L11.5403 3.44359C11.5403 3.43659 11.5403 3.43659 11.6243 3.38159L11.7223 3.41859L11.7323 3.49859L11.7573 3.48259L11.7473 3.46159C11.7433 3.41859 11.7433 3.41859 11.8083 3.41059L11.8373 3.38559L11.8963 3.38159H11.9093L11.9173 3.42459L11.8593 3.51259L11.8663 3.56659C11.8663 3.55559 11.9023 3.57259 11.9023 3.57259L11.9333 3.67859L12.0013 3.74459L12.0483 3.88159L11.9863 3.90059L12.0113 3.97159L11.9463 3.98659L11.9523 4.05359L11.8453 4.07059L11.8593 4.10459L11.8313 4.15059L11.6383 4.17659Z" fill="#C2A21F"/>
<path id="Fill 70" fill-rule="evenodd" clip-rule="evenodd" d="M11.2955 3.71091L11.352 3.70806L11.3619 3.75663L11.3809 3.77234L11.3823 3.86448L11.4 3.87163L11.4056 3.8352L11.4501 3.83091L11.4543 3.90448L11.4473 3.91306L11.4529 3.92448L11.5009 3.92306C11.5009 3.92306 11.5108 3.90448 11.5136 3.90448C11.5136 3.90448 11.5411 3.90091 11.5411 3.90234L11.5517 3.92306L11.5616 3.89806C11.5616 3.89806 11.5877 3.88377 11.5877 3.88663L11.6082 3.9202L11.6456 3.91448L11.6237 3.8952L11.6153 3.84734L11.6661 3.81948L11.6844 3.85306C11.6844 3.85306 11.7049 3.85591 11.7049 3.85306C11.7021 3.85306 11.6816 3.81448 11.6816 3.81448V3.73448L11.7204 3.6802L11.7741 3.67306V3.65091L11.7204 3.60091L11.7049 3.53234L11.6774 3.51734L11.6689 3.5252L11.6336 3.52948L11.6689 3.57806V3.61163L11.6844 3.6202L11.6788 3.70806C11.6788 3.70806 11.6414 3.7152 11.6414 3.71663L11.6386 3.7652L11.6153 3.78877L11.6033 3.8352C11.6004 3.8352 11.5793 3.86448 11.5793 3.86448H11.5369C11.5369 3.86448 11.5108 3.84234 11.5108 3.84091L11.508 3.80734L11.4896 3.80163C11.4882 3.80163 11.4804 3.76234 11.4804 3.76234L11.4529 3.74734V3.7252L11.4211 3.71234C11.4211 3.71234 11.4183 3.69306 11.4183 3.6902C11.4183 3.6902 11.4056 3.68306 11.4028 3.68306V3.62591L11.4289 3.6202L11.4141 3.6052L11.4084 3.58806V3.57163L11.4289 3.5502C11.4289 3.5502 11.3936 3.54663 11.3936 3.54734L11.3576 3.56306L11.3548 3.6302L11.3131 3.64377L11.2807 3.69591L11.2955 3.71091Z" fill="#C2A21F"/>
<path id="Fill 72" fill-rule="evenodd" clip-rule="evenodd" d="M11.8377 3.53192L11.7867 3.55192L11.8457 3.59592L11.8627 3.77792L11.8967 3.73492L11.9827 3.72092L11.8967 3.64892L11.8707 3.54392L11.8377 3.53192ZM11.7497 4.10192C11.6987 4.03992 11.6987 4.03992 11.6987 4.03592L11.6817 4.05192V4.05692L11.6757 4.03592C11.7107 4.01792 11.7147 4.01792 11.7187 4.01792L11.7617 4.07492L11.7967 4.05892L11.7577 4.05692L11.7397 3.98492L11.8237 3.92692L11.8417 3.94992C11.8417 3.94592 11.8417 3.94592 11.8377 3.94192L11.8337 3.82292L11.8517 3.79792C11.8377 3.80292 11.8167 3.80692 11.8047 3.81092C11.8087 3.81892 11.8087 3.86992 11.8087 3.86992L11.7697 3.91092C11.7477 3.98092 11.7477 3.98092 11.7397 3.98092L11.7187 4.01592L11.6467 4.02392C11.5957 3.98092 11.5957 3.98092 11.5957 3.97092L11.5877 3.92692C11.5627 3.92992 11.5627 3.92792 11.5507 3.86992L11.5117 3.85192L11.5077 3.81092L11.4727 3.80292L11.4607 3.76792C11.4397 3.76392 11.4397 3.76392 11.4397 3.67092V3.65492L11.4897 3.64892L11.5237 3.67692L11.4647 3.68592C11.4767 3.69592 11.4767 3.73892 11.4767 3.74692L11.5367 3.79792L11.5407 3.83892L11.5737 3.85192C11.5837 3.85992 11.5917 3.90292 11.5957 3.90892C11.6207 3.92092 11.6287 3.97092 11.6287 3.97092C11.6287 3.96792 11.6557 3.99292 11.6557 3.99292L11.7027 3.98892C11.7287 3.94992 11.7287 3.94992 11.7357 3.94992C11.7287 3.94992 11.7437 3.89492 11.7437 3.89492L11.7787 3.85392V3.79792C11.7787 3.77992 11.7787 3.77992 11.8477 3.77192L11.8167 3.60392L11.7697 3.54392L11.8297 3.51392L11.8967 3.52392L11.9257 3.63192L11.9997 3.69992V3.73692L11.9097 3.76392L11.8627 3.82892L11.8667 3.93392C11.8707 3.93392 11.8927 3.97292 11.8967 3.98092L11.8557 4.00692L11.8167 3.94992L11.7617 3.99692L11.8127 4.06492L11.7497 4.10192ZM11.5117 4.10592L11.5037 4.07892V3.95992L11.4607 3.97892L11.4687 4.01592L11.4647 4.03592L11.4217 4.01792L11.4057 3.87592L11.3667 3.78992L11.3007 3.80692L11.2737 3.78192L11.3167 3.68392L11.3807 3.65892C11.3747 3.65492 11.3747 3.59292 11.3747 3.58292C11.3927 3.56492 11.4257 3.55192 11.4317 3.54792C11.4487 3.54792 11.4957 3.55192 11.4957 3.55192L11.4727 3.63592L11.4447 3.61792L11.4727 3.57492C11.4607 3.57892 11.4447 3.57492 11.4427 3.57692C11.4527 3.57892 11.4257 3.59092 11.4057 3.59392V3.67692L11.3337 3.70992L11.2967 3.77792L11.3807 3.76792L11.4137 3.85192L11.4447 4.00492L11.4427 3.95992L11.5197 3.94192L11.5467 4.05692L11.5367 4.07292L11.6087 4.06092V4.09792L11.5117 4.10592Z" fill="#C2A21F"/>
<path id="Fill 74" fill-rule="evenodd" clip-rule="evenodd" d="M11.5078 3.80167L11.5367 3.78667V3.75596L11.5078 3.74739L11.5007 3.73881L11.5283 3.74167L11.5671 3.73881L11.5798 3.73453C11.5727 3.74739 11.5699 3.74739 11.5671 3.74739L11.5466 3.75739L11.5495 3.78739L11.6102 3.79453C11.6087 3.79453 11.6102 3.80881 11.6087 3.80881L11.5438 3.7931L11.5022 3.81667L11.5078 3.80167Z" fill="#613F21"/>
<path id="Fill 76" fill-rule="evenodd" clip-rule="evenodd" d="M11.4926 3.83074L11.5025 3.80003L11.5342 3.78074L11.5258 3.75146L11.5406 3.75574V3.75146L11.5667 3.74146V3.74717L11.549 3.76217L11.5547 3.78717C11.6154 3.79146 11.6154 3.79146 11.6154 3.79574C11.6083 3.81431 11.6083 3.81431 11.5406 3.7986L11.4926 3.83074Z" fill="#C2A21F"/>
<path id="Fill 78" fill-rule="evenodd" clip-rule="evenodd" d="M11.6691 3.61325L11.6303 3.64111L11.6084 3.68325L11.5971 3.68468L11.5618 3.63682L11.5216 3.63825C11.5216 3.63825 11.4983 3.69397 11.4983 3.69539L11.4799 3.69254L11.439 3.64682C11.439 3.64682 11.4235 3.62325 11.4263 3.62325H11.5343L11.5315 3.57254C11.5315 3.57254 11.5188 3.56897 11.5075 3.56325C11.5131 3.56039 11.5668 3.56039 11.5668 3.56039L11.5435 3.57682V3.62039H11.6388L11.6691 3.61325Z" fill="#C2A21F"/>
<path id="Fill 80" fill-rule="evenodd" clip-rule="evenodd" d="M11.5926 3.6531L11.4306 3.6671L11.5186 3.7391C11.5246 3.7291 11.5316 3.7081 11.5456 3.6671L11.5966 3.6591L11.5926 3.6531ZM11.5316 3.7681L11.5026 3.7661L11.4266 3.6881L11.4166 3.6451L11.5826 3.6371L11.5696 3.5891L11.5786 3.5791C11.5746 3.5811 11.5716 3.5811 11.5656 3.5831C11.5496 3.5511 11.5786 3.5481 11.6296 3.5481H11.6846L11.6046 3.5981L11.6156 3.6491L11.7706 3.6221L11.6906 3.7471L11.6586 3.7511L11.6086 3.6821L11.5696 3.6901C11.5716 3.6961 11.5456 3.7551 11.5456 3.7581L11.5316 3.7681Z" fill="#C2A21F"/>
<path id="Fill 82" fill-rule="evenodd" clip-rule="evenodd" d="M11.4774 3.63688H11.4887C11.4922 3.63688 11.495 3.64116 11.495 3.64545V3.65331C11.495 3.65902 11.4922 3.66188 11.4887 3.66188H11.4774C11.4717 3.66188 11.4689 3.65902 11.4689 3.65331V3.64545C11.4689 3.64116 11.4717 3.63688 11.4774 3.63688Z" fill="#613F21"/>
<path id="Fill 84" fill-rule="evenodd" clip-rule="evenodd" d="M11.5947 3.63126H11.606C11.6088 3.63126 11.6095 3.63555 11.6095 3.64126V3.64769C11.6095 3.65341 11.6088 3.65626 11.606 3.65626H11.5947C11.5933 3.65626 11.5876 3.65341 11.5876 3.64769V3.64126C11.5876 3.63555 11.5933 3.63126 11.5947 3.63126Z" fill="#613F21"/>
<path id="Fill 86" fill-rule="evenodd" clip-rule="evenodd" d="M11.4293 3.5601L11.4166 3.55439L11.4208 3.54082C11.454 3.52653 11.4829 3.51582 11.5288 3.51153C11.5768 3.50582 11.61 3.51439 11.6509 3.52082C11.6086 3.53796 11.574 3.52939 11.5316 3.5351C11.4886 3.53796 11.4624 3.54724 11.4293 3.5601Z" fill="#C2A21F"/>
<path id="Fill 88" fill-rule="evenodd" clip-rule="evenodd" d="M11.4361 3.47229H11.4057L11.3591 3.42657L11.3824 3.42871L11.417 3.44157L11.4361 3.47229Z" fill="#C2A21F"/>
<path id="Fill 90" fill-rule="evenodd" clip-rule="evenodd" d="M11.4567 3.48496H11.4059L11.3283 3.40853L11.4179 3.42924L11.4567 3.48496Z" fill="#C2A21F"/>
<path id="Fill 92" fill-rule="evenodd" clip-rule="evenodd" d="M11.6291 3.4543L11.7011 3.40001L11.6771 3.39573L11.6482 3.42073L11.6178 3.42644L11.6291 3.4543Z" fill="#C2A21F"/>
<path id="Fill 94" fill-rule="evenodd" clip-rule="evenodd" d="M11.5851 3.46533L11.4721 3.46818L11.475 3.45676L11.5159 3.45104L11.5215 3.43604H11.5314C11.5314 3.43747 11.5413 3.45104 11.5413 3.45104L11.5822 3.45818L11.5851 3.46533Z" fill="#C2A21F"/>
<path id="Fill 96" fill-rule="evenodd" clip-rule="evenodd" d="M11.4595 3.48079L11.4623 3.45579L11.516 3.4415L11.4927 3.45722L11.5287 3.45436L11.5244 3.4415L11.5851 3.44722L11.5943 3.46579L11.588 3.47508L11.4595 3.48079Z" fill="#C2A21F"/>
<path id="Fill 98" fill-rule="evenodd" clip-rule="evenodd" d="M11.5822 3.4208L11.5406 3.42365L11.5385 3.40294L11.5822 3.4208Z" fill="#C2A21F"/>
<path id="Fill 100" fill-rule="evenodd" clip-rule="evenodd" d="M11.5133 3.40252L11.5105 3.42324L11.4716 3.42895L11.5133 3.40252Z" fill="#C2A21F"/>
<path id="Fill 102" fill-rule="evenodd" clip-rule="evenodd" d="M11.2982 3.79323L11.3187 3.74466L11.2982 3.71109L11.2834 3.75966L11.2982 3.79323Z" fill="#C2A21F"/>
<path id="Fill 104" fill-rule="evenodd" clip-rule="evenodd" d="M11.3368 3.8198L11.3615 3.76265L11.3163 3.80837L11.3368 3.8198Z" fill="#C2A21F"/>
<path id="Fill 106" fill-rule="evenodd" clip-rule="evenodd" d="M11.3423 3.83502L11.3106 3.81859L11.3522 3.75716L11.3233 3.81716L11.3367 3.82002L11.3261 3.8143L11.355 3.75573L11.3423 3.83502Z" fill="#C2A21F"/>
<path id="Fill 108" fill-rule="evenodd" clip-rule="evenodd" d="M12.4191 4.76267L12.5447 3.29625L13.3127 2.84839L13.9064 3.49839L13.5125 4.91196C13.1278 4.83553 12.9082 4.7991 12.4191 4.76267Z" fill="#1E2788"/>
<path id="Fill 110" fill-rule="evenodd" clip-rule="evenodd" d="M13.3096 2.85281L12.5473 3.3021L12.4245 4.76281C12.9059 4.79352 13.1275 4.82995 13.5066 4.90781L13.9012 3.49852L13.3096 2.85281ZM13.5151 4.91924L13.5094 4.91781C13.1275 4.83924 12.9059 4.80281 12.4188 4.7671L12.5388 3.29638L13.3096 2.84424L13.9111 3.4971L13.5151 4.91924Z" fill="#160080"/>
<path id="Fill 112" fill-rule="evenodd" clip-rule="evenodd" d="M11.7131 4.09594L11.6771 4.10594V4.17522L11.6306 4.18522L11.6002 4.24665L11.6178 4.26451C11.6178 4.26737 11.603 4.31094 11.6058 4.31094L11.615 4.32594L11.6291 4.36522L11.6595 4.36808L11.6666 4.41237L11.7146 4.41951L11.764 4.45451V4.47522H11.8176L11.8536 4.48665L11.9764 4.47237L11.9941 4.44451V4.40951L12.0633 4.40737L12.0703 4.35237H12.1049L12.0993 4.2888L12.1296 4.29094L12.1226 4.26022L12.1049 4.23665L12.0993 4.19808L12.0484 4.14594L12.0371 4.07665L12.0011 4.05951L11.9983 4.01665L12.0371 3.96308L12.0343 3.94094H11.9983L11.9736 3.96308L11.9376 3.96737V3.98308L11.9489 4.0138H11.9073V3.96737L11.848 3.93808C11.848 3.93808 11.7971 3.97308 11.7971 3.97451C11.7971 3.97594 11.7943 4.01808 11.7943 4.01808L11.7668 4.02308L11.7407 3.98594L11.6955 3.96737H11.6715V3.99665L11.7174 4.05951L11.7131 4.09594Z" fill="#FBFC2B"/>
<path id="Fill 114" fill-rule="evenodd" clip-rule="evenodd" d="M11.9127 4.67847L11.9677 4.69447L12.1377 4.67047L12.1507 4.64347V4.60247L12.2607 4.58447L12.2527 4.51847L12.3187 4.50447L12.2937 4.43247L12.3537 4.42047L12.3037 4.36947L12.2977 4.30547L12.2267 4.24247L12.2057 4.13947C12.1587 4.12547 12.1587 4.12547 12.1587 4.11247L12.1547 4.05147L12.2097 3.96747L12.1687 3.96347L12.1447 3.98947C12.1377 3.99147 12.0947 3.99647 12.0867 3.99647C12.1117 4.04347 12.1117 4.04347 12.1117 4.04747L12.0397 4.06547L12.0197 3.98347L11.9517 3.95747C11.9557 3.96347 11.9047 3.99647 11.8947 4.00447C11.8987 4.00847 11.8947 4.05547 11.8947 4.05547V4.06547L11.8487 4.07847L11.7937 4.01847L11.7347 3.99847L11.7197 4.02447L11.7857 4.10247L11.7817 4.16647L11.7157 4.19247L11.7307 4.27447L11.6507 4.30347L11.6157 4.38147C11.6467 4.39947 11.6467 4.40547 11.6297 4.44447C11.6157 4.44647 11.6177 4.44847 11.6417 4.47947L11.6587 4.53347L11.6917 4.53047L11.7157 4.60247L11.7697 4.60047L11.8487 4.65347L11.8537 4.69047L11.9127 4.67847ZM11.9597 4.72547L11.8247 4.70747L11.8167 4.66447L11.7607 4.63147L11.6977 4.62147L11.6727 4.54747L11.6417 4.55547L11.5947 4.42447L11.5907 4.36647L11.6337 4.28047L11.7137 4.25847L11.6957 4.17647L11.7607 4.14947L11.7567 4.11047L11.6917 4.03347L11.6877 3.98347L11.6917 3.96347L11.7387 3.96747L11.8107 3.99147L11.8537 4.05547L11.8657 3.99147C11.8657 3.98747 11.8657 3.98747 11.9497 3.92847L12.0477 3.96747L12.0537 4.04747L12.0827 4.03347L12.0687 4.01047C12.0687 3.96747 12.0687 3.96747 12.1337 3.95947L12.1627 3.93647L12.2197 3.93247H12.2347L12.2427 3.97347L12.1837 4.06147L12.1917 4.11247C12.1917 4.10447 12.2267 4.11947 12.2267 4.11947L12.2567 4.22947L12.3207 4.29347L12.3697 4.43247L12.3107 4.44847L12.3367 4.51847L12.2697 4.53747L12.2737 4.60247L12.1667 4.61947L12.1807 4.65347L12.1507 4.69947L11.9597 4.72547Z" fill="#C2A21F"/>
<path id="Fill 116" fill-rule="evenodd" clip-rule="evenodd" d="M11.6181 4.26066L11.6745 4.25781L11.6844 4.30638L11.7021 4.32209L11.7049 4.41138L11.7225 4.41852L11.7282 4.38352L11.7726 4.37923L11.7797 4.45209L11.7698 4.46138L11.7726 4.47281H11.8221L11.8362 4.45209C11.8383 4.45209 11.8637 4.44923 11.8637 4.44923C11.8637 4.45209 11.8771 4.47281 11.8771 4.47281L11.8842 4.44352C11.8842 4.44352 11.9131 4.43352 11.9131 4.43495L11.9322 4.46995L11.9682 4.46423L11.9491 4.44066L11.9378 4.39566L11.9886 4.36781L12.0098 4.40281H12.0275L12.0042 4.36138V4.27995L12.0451 4.22709L12.0995 4.22138V4.20066L12.0451 4.14923L12.0303 4.08066L11.9985 4.06423L11.9915 4.07352L11.9562 4.07638L11.9915 4.12781V4.15995L12.007 4.16709L12.0042 4.25781L11.9654 4.26352C11.9654 4.26495 11.9639 4.31352 11.9639 4.31352L11.9378 4.33709C11.9378 4.33709 11.9258 4.38352 11.923 4.38352L11.9018 4.41281L11.8609 4.41423C11.8609 4.41423 11.8362 4.39066 11.8362 4.38923L11.8305 4.35566C11.8305 4.35566 11.815 4.34995 11.8122 4.34995L11.8058 4.31066L11.7741 4.29709L11.7726 4.27352L11.7465 4.26066C11.7465 4.26066 11.7437 4.24138 11.7409 4.23852L11.7282 4.23138C11.7254 4.23138 11.7254 4.17423 11.7254 4.17423L11.7501 4.16852L11.7381 4.15209L11.7338 4.13495V4.11995L11.7529 4.09852L11.7148 4.09495C11.7148 4.09495 11.6788 4.11281 11.6788 4.11138C11.6816 4.11138 11.6788 4.17709 11.6788 4.17709L11.6357 4.18923L11.6032 4.24423L11.6181 4.26066Z" fill="#C2A21F"/>
<path id="Fill 118" fill-rule="evenodd" clip-rule="evenodd" d="M12.1608 4.08001L12.1098 4.10001L12.1668 4.14401L12.1898 4.32601L12.2178 4.28501L12.3058 4.26901L12.2218 4.19701L12.1978 4.09001L12.1608 4.08001ZM12.0728 4.64601C12.0258 4.59001 12.0258 4.59001 12.0258 4.58401L12.0088 4.64101L11.9618 4.60501L11.9398 4.61101L11.9748 4.59001V4.60701L12.0048 4.62901L12.0128 4.62101L11.9988 4.58401C12.0378 4.56601 12.0418 4.56601 12.0458 4.56601C12.0588 4.58401 12.0848 4.62301 12.0848 4.62301L12.1238 4.60701H12.0808L12.0628 4.53101L12.1468 4.47601L12.1648 4.49601C12.1648 4.49401 12.1648 4.49401 12.1608 4.49001V4.36701L12.1748 4.34601C12.1608 4.35301 12.1398 4.35701 12.1318 4.35901C12.1358 4.36701 12.1318 4.41401 12.1318 4.41401L12.0968 4.45901C12.0728 4.52901 12.0728 4.52901 12.0588 4.52901C12.0668 4.53101 12.0458 4.56201 12.0458 4.56201L11.9718 4.57001C11.9168 4.52901 11.9168 4.52901 11.9168 4.51901L11.9148 4.47301C11.8928 4.48001 11.8898 4.47601 11.8738 4.41401L11.8348 4.39801L11.8308 4.35901L11.7958 4.35301L11.7878 4.31601C11.7648 4.31201 11.7648 4.31201 11.7648 4.21901V4.20501L11.8148 4.19701L11.8128 4.19501L11.8468 4.22301L11.7918 4.23401C11.7978 4.24001 11.7978 4.28901 11.7978 4.29501C11.8188 4.30301 11.8188 4.30301 11.8268 4.34001L11.8638 4.34601L11.8658 4.38701L11.8988 4.39601C11.9068 4.40801 11.9168 4.45101 11.9168 4.45901C11.9478 4.46901 11.9498 4.51901 11.9498 4.51901C11.9498 4.51601 11.9828 4.54101 11.9828 4.54101L12.0298 4.53901C12.0518 4.49601 12.0518 4.49401 12.0588 4.49401C12.0518 4.49401 12.0668 4.43901 12.0668 4.43901L12.1018 4.40201V4.34201C12.1018 4.32801 12.1018 4.32801 12.1708 4.32001L12.1398 4.15401L12.0968 4.09201L12.1528 4.06201L12.2178 4.07201L12.2488 4.18201L12.3228 4.24801V4.28501L12.2328 4.31201L12.1898 4.37901L12.1938 4.48001C12.1938 4.48001 12.2178 4.52301 12.2218 4.52901L12.1818 4.55701L12.1398 4.49601L12.0888 4.54101L12.1358 4.61101L12.0728 4.64601ZM11.8348 4.65401L11.8268 4.62901L11.8308 4.51001L11.7878 4.52701L11.7958 4.56201L11.7918 4.58601L11.7468 4.56601L11.7328 4.42601L11.6938 4.34001L11.6238 4.35701L11.5948 4.33001L11.6398 4.23401L11.7078 4.20901C11.6998 4.20501 11.6998 4.14201 11.6998 4.13301C11.7178 4.11301 11.7508 4.10001 11.7548 4.09601C11.7718 4.09201 11.8188 4.10001 11.8188 4.10001L11.7978 4.18401L11.7718 4.16401L11.7978 4.12301C11.7838 4.12701 11.7718 4.12501 11.7648 4.12301C11.7758 4.12901 11.7468 4.13701 11.7288 4.14201C11.7328 4.15401 11.7328 4.17801 11.7288 4.22301L11.6608 4.25601L11.6158 4.32401L11.7078 4.31601L11.7368 4.39801L11.7678 4.54901V4.51001L11.8428 4.49001L11.8698 4.60701L11.8598 4.62101L11.9358 4.61101L11.9318 4.64201L11.8348 4.65401Z" fill="#C2A21F"/>
<path id="Fill 120" fill-rule="evenodd" clip-rule="evenodd" d="M11.8332 4.34979L11.8607 4.33479V4.30264L11.8332 4.29693L11.8219 4.2855L11.8508 4.29121L11.8896 4.28836L11.9023 4.28264C11.8967 4.29693 11.8939 4.29407 11.8925 4.29407C11.8896 4.29407 11.872 4.30407 11.872 4.30407V4.33479L11.9355 4.34407C11.9327 4.34407 11.9355 4.3555 11.9327 4.3555C11.9299 4.3555 11.8663 4.34121 11.8663 4.34121L11.8275 4.36621L11.8332 4.34979Z" fill="#613F21"/>
<path id="Fill 122" fill-rule="evenodd" clip-rule="evenodd" d="M11.8151 4.37906L11.8278 4.34692L11.8582 4.32906L11.8483 4.29835L11.8631 4.30121V4.29835L11.8893 4.28835L11.8921 4.29406L11.8744 4.30906L11.8773 4.33478C11.9408 4.33692 11.9408 4.33692 11.9408 4.34406C11.9295 4.36121 11.9281 4.36121 11.866 4.34692L11.8151 4.37906Z" fill="#C2A21F"/>
<path id="Fill 124" fill-rule="evenodd" clip-rule="evenodd" d="M11.9944 4.16137L11.9556 4.18922L11.9323 4.23137L11.9203 4.23422L11.8843 4.18494H11.844L11.8208 4.24351L11.8052 4.24065L11.7615 4.19494C11.7615 4.19494 11.7488 4.16994 11.7502 4.16994C11.753 4.16994 11.8568 4.17137 11.8568 4.17137V4.12065C11.8568 4.12065 11.8412 4.11565 11.8328 4.11137C11.8384 4.10994 11.8899 4.10994 11.8899 4.10994L11.8688 4.12494V4.16708L11.9612 4.16851L11.9944 4.16137Z" fill="#C2A21F"/>
<path id="Fill 126" fill-rule="evenodd" clip-rule="evenodd" d="M11.9198 4.20119L11.7558 4.21719L11.8438 4.28919C11.8478 4.27719 11.8558 4.25619 11.8728 4.21719L11.9238 4.20919L11.9198 4.20119ZM11.8558 4.31819L11.8298 4.31419L11.7498 4.23619L11.7378 4.19119L11.9058 4.18519L11.8908 4.13719L11.9058 4.12519C11.8988 4.12919 11.8948 4.12919 11.8888 4.13119C11.8728 4.09919 11.9058 4.09619 11.9528 4.09619H12.0078L11.9318 4.14619L11.9398 4.19519L12.0978 4.17019L12.0178 4.29519L11.9858 4.29919L11.9318 4.23019L11.8908 4.23819C11.8948 4.24219 11.8728 4.29919 11.8728 4.30619L11.8558 4.31819Z" fill="#C2A21F"/>
<path id="Fill 128" fill-rule="evenodd" clip-rule="evenodd" d="M11.8029 4.1852H11.8099C11.8156 4.1852 11.8177 4.18949 11.8177 4.19234V4.20163C11.8177 4.20734 11.8156 4.20877 11.8099 4.20877H11.8029C11.7972 4.20877 11.7944 4.20734 11.7944 4.20163V4.19234C11.7944 4.18949 11.7972 4.1852 11.8029 4.1852Z" fill="#613F21"/>
<path id="Fill 130" fill-rule="evenodd" clip-rule="evenodd" d="M11.9173 4.17957H11.9286C11.93 4.17957 11.9349 4.18385 11.9349 4.18814V4.19742C11.9349 4.20028 11.93 4.20171 11.9286 4.20171H11.9173C11.9145 4.20171 11.913 4.20028 11.913 4.19742V4.18814C11.913 4.18385 11.9145 4.17957 11.9173 4.17957Z" fill="#613F21"/>
<path id="Fill 132" fill-rule="evenodd" clip-rule="evenodd" d="M11.7504 4.11131L11.7377 4.10274L11.7405 4.09202C11.7765 4.07488 11.8054 4.06274 11.8513 4.05988C11.8993 4.05417 11.9381 4.05988 11.9763 4.06774C11.9325 4.08345 11.8993 4.07917 11.8563 4.08202C11.8125 4.08631 11.785 4.09631 11.7504 4.11131Z" fill="#C2A21F"/>
<path id="Fill 134" fill-rule="evenodd" clip-rule="evenodd" d="M11.7615 4.02059H11.7284L11.6846 3.97202L11.7079 3.9763L11.7382 3.98987L11.7615 4.02059Z" fill="#C2A21F"/>
<path id="Fill 136" fill-rule="evenodd" clip-rule="evenodd" d="M11.7821 4.03185H11.7285L11.6508 3.95685L11.7433 3.97756L11.7821 4.03185Z" fill="#C2A21F"/>
<path id="Fill 138" fill-rule="evenodd" clip-rule="evenodd" d="M11.9503 4.00384L12.0245 3.94813L11.9983 3.94384L11.9736 3.97027L11.9405 3.9717L11.9503 4.00384Z" fill="#C2A21F"/>
<path id="Fill 140" fill-rule="evenodd" clip-rule="evenodd" d="M11.9104 4.01216L11.7974 4.01645V4.00645L11.8412 4.00073L11.844 3.98573C11.844 3.98573 11.8567 3.98287 11.8567 3.98573L11.8666 3.9993L11.9076 4.00645L11.9104 4.01216Z" fill="#C2A21F"/>
<path id="Fill 142" fill-rule="evenodd" clip-rule="evenodd" d="M11.7849 4.02889L11.7863 4.00389L11.8385 3.9896L11.8152 4.00674L11.8512 4.00389L11.8456 3.9896L11.9105 3.99531L11.9169 4.01246L11.9105 4.02317L11.7849 4.02889Z" fill="#C2A21F"/>
<path id="Fill 144" fill-rule="evenodd" clip-rule="evenodd" d="M11.9049 3.97028H11.8632L11.8611 3.94957L11.9049 3.97028Z" fill="#C2A21F"/>
<path id="Fill 146" fill-rule="evenodd" clip-rule="evenodd" d="M11.8386 3.95086L11.8358 3.97015L11.797 3.97729L11.8386 3.95086Z" fill="#C2A21F"/>
<path id="Fill 148" fill-rule="evenodd" clip-rule="evenodd" d="M11.6208 4.34156L11.6413 4.29298L11.6236 4.25798L11.6081 4.30941L11.6208 4.34156Z" fill="#C2A21F"/>
<path id="Fill 150" fill-rule="evenodd" clip-rule="evenodd" d="M11.6621 4.36787L11.684 4.3093L11.6388 4.35787L11.6621 4.36787Z" fill="#C2A21F"/>
<path id="Fill 152" fill-rule="evenodd" clip-rule="evenodd" d="M11.6664 4.38332L11.6332 4.36689L11.6748 4.30546L11.6487 4.36546L11.6621 4.36832L11.6515 4.36404L11.6777 4.30118L11.6664 4.38332Z" fill="#C2A21F"/>
<path id="Fill 154" fill-rule="evenodd" clip-rule="evenodd" d="M12.6108 4.50042L12.572 4.5447L12.5748 4.58399H12.6545C12.68 4.57542 12.6877 4.56613 12.6934 4.55756C12.6976 4.5447 12.6934 4.53684 12.6962 4.51827L12.6108 4.50042Z" fill="#CB0028"/>
<path id="Fill 156" fill-rule="evenodd" clip-rule="evenodd" d="M12.5694 4.58829L12.5651 4.54472L12.6054 4.49758L12.6964 4.51401L12.6936 4.55758L12.6964 4.56043C12.6908 4.57043 12.6851 4.58115 12.6548 4.58829H12.5694Z" fill="#D30028"/>
<path id="Fill 158" fill-rule="evenodd" clip-rule="evenodd" d="M12.801 4.60922L12.765 4.63422L12.7622 4.67064L12.8342 4.67636C12.8589 4.6735 12.8617 4.66922 12.8674 4.65779C12.8765 4.64564 12.8751 4.64564 12.8765 4.62993L12.801 4.60922Z" fill="#CB0028"/>
<path id="Fill 160" fill-rule="evenodd" clip-rule="evenodd" d="M12.8341 4.68172L12.7621 4.676L12.76 4.63457L12.7953 4.60386L12.8793 4.62457L12.8673 4.65814L12.8729 4.661C12.8644 4.67314 12.8588 4.676 12.8341 4.68172Z" fill="#D30028"/>
<path id="Fill 162" fill-rule="evenodd" clip-rule="evenodd" d="M13.1153 4.51576L13.0764 4.55505L13.0793 4.58434L13.1569 4.58719C13.1788 4.58148 13.176 4.58434 13.1844 4.56719C13.1922 4.55505 13.1894 4.55219 13.1922 4.53505L13.1153 4.51576Z" fill="#CB0028"/>
<path id="Fill 164" fill-rule="evenodd" clip-rule="evenodd" d="M13.1567 4.59259L13.0798 4.5883L13.0713 4.55473L13.1129 4.5133L13.1927 4.52973L13.1842 4.56759L13.1899 4.57044C13.1786 4.58544 13.1786 4.58544 13.1567 4.59259Z" fill="#D30028"/>
<path id="Fill 166" fill-rule="evenodd" clip-rule="evenodd" d="M13.3358 4.58558L13.2921 4.62201V4.65844L13.3718 4.6663C13.3965 4.65987 13.3994 4.65416 13.4078 4.64273C13.4142 4.6313 13.4092 4.62987 13.4114 4.61201L13.3358 4.58558Z" fill="#CB0028"/>
<path id="Fill 168" fill-rule="evenodd" clip-rule="evenodd" d="M13.3731 4.67062L13.292 4.66348L13.2891 4.62205L13.3301 4.58419L13.4148 4.60634L13.412 4.64705C13.4021 4.65776 13.3964 4.66634 13.3731 4.67062Z" fill="#D30028"/>
<path id="Fill 170" fill-rule="evenodd" clip-rule="evenodd" d="M12.7982 3.62451L12.9486 3.72665C12.9775 3.70237 13.0354 3.71665 13.0615 3.72379C13.1003 3.73451 13.1307 3.75808 13.166 3.76522C13.2323 3.78237 13.3128 3.79308 13.3714 3.78879C13.4321 3.78094 13.4808 3.75022 13.5274 3.72665V3.71094H13.4985C13.4505 3.72879 13.3841 3.72879 13.3305 3.72237C13.2796 3.71665 13.2669 3.69308 13.19 3.66879L13.1815 3.65665C13.2768 3.65951 13.2973 3.65665 13.3361 3.64094C13.3714 3.63022 13.3883 3.60808 13.4116 3.59094V3.57451H13.3813C13.3453 3.59665 13.322 3.60237 13.2683 3.59665C13.2175 3.59094 13.1716 3.56308 13.137 3.56165C13.1017 3.56165 13.1017 3.54522 13.0686 3.54237C13.0135 3.53808 12.9542 3.54665 12.9027 3.55879C12.8399 3.57879 12.8286 3.59379 12.7982 3.62451Z" fill="#CB0028"/>
<path id="Fill 172" fill-rule="evenodd" clip-rule="evenodd" d="M13.3359 3.79455C13.2865 3.79455 13.2258 3.78598 13.1636 3.77098C13.1453 3.76813 13.1276 3.75813 13.11 3.75027C13.0945 3.7417 13.0768 3.73455 13.0585 3.72884C13.0048 3.71384 12.9716 3.71527 12.9512 3.72884L12.7952 3.63027C12.8283 3.58384 12.8467 3.5717 12.9003 3.55455C12.9596 3.54098 13.0161 3.53527 13.0683 3.53813C13.0874 3.54098 13.0945 3.54313 13.1043 3.54741C13.1128 3.55313 13.1206 3.55741 13.1375 3.55741C13.1566 3.55741 13.1735 3.56455 13.1954 3.57241C13.2173 3.58098 13.2434 3.58955 13.2681 3.59098C13.3196 3.5967 13.3429 3.59384 13.381 3.57027V3.56884L13.4114 3.57241L13.4093 3.5767L13.4114 3.57384V3.57813C13.4093 3.57813 13.4093 3.58098 13.4079 3.58098L13.3966 3.61027C13.381 3.62313 13.3634 3.63813 13.3359 3.64527C13.3069 3.65955 13.2893 3.6617 13.2448 3.6617H13.2201L13.2448 3.65241C13.2865 3.65241 13.3041 3.64813 13.333 3.63527C13.3578 3.62741 13.3761 3.61455 13.3881 3.6017L13.4079 3.58098C13.3387 3.60313 13.3196 3.60741 13.2681 3.6017C13.2406 3.59955 13.2145 3.58955 13.1926 3.58098C13.1721 3.57384 13.1538 3.56884 13.1375 3.56741C13.1178 3.56741 13.1072 3.5617 13.1001 3.55741C13.0916 3.55313 13.0853 3.55027 13.0683 3.54741C13.0161 3.54313 12.961 3.55027 12.9032 3.56313C12.8495 3.57813 12.8368 3.59384 12.8135 3.61741L12.9512 3.72027C12.961 3.70527 13.0048 3.70241 13.0613 3.71955C13.0796 3.72313 13.0973 3.7317 13.1156 3.73884C13.1333 3.75027 13.1481 3.7567 13.1665 3.76098C13.2434 3.77955 13.3154 3.78884 13.3719 3.7817C13.4227 3.77813 13.4658 3.75527 13.5039 3.73455L13.4982 3.7167C13.4382 3.73884 13.3761 3.73455 13.3302 3.72884C13.3027 3.72313 13.2836 3.7167 13.2639 3.70527C13.2448 3.69527 13.2229 3.68598 13.1869 3.67598L13.2046 3.66884C13.2349 3.68027 13.2533 3.69027 13.2681 3.69527C13.2893 3.70527 13.3041 3.71527 13.3302 3.71955C13.3761 3.72313 13.4382 3.72884 13.4961 3.70527H13.5272L13.5095 3.7417C13.4679 3.76241 13.4241 3.78741 13.3733 3.7917C13.3606 3.79313 13.3486 3.79455 13.3359 3.79455Z" fill="#BA0019"/>
<path id="Fill 174" fill-rule="evenodd" clip-rule="evenodd" d="M12.8286 3.60197C12.8413 3.60626 12.8561 3.61054 12.8702 3.61697C12.8822 3.62269 12.8766 3.62269 12.8893 3.63269C12.8879 3.61983 12.8893 3.61983 12.8822 3.61197C12.8723 3.60197 12.8589 3.5934 12.849 3.58697L12.8286 3.60197Z" fill="#82373B"/>
<path id="Fill 176" fill-rule="evenodd" clip-rule="evenodd" d="M12.954 3.71103C12.954 3.69817 12.9469 3.68746 12.9413 3.67603C12.9363 3.66388 12.9335 3.65388 12.9236 3.64388C12.9363 3.64674 12.9413 3.65103 12.9512 3.66388C12.9611 3.67603 12.9611 3.68746 12.9639 3.70531L12.954 3.71103Z" fill="#82373B"/>
<path id="Fill 178" fill-rule="evenodd" clip-rule="evenodd" d="M12.9816 3.55037C12.9872 3.56037 12.9928 3.56537 12.9992 3.5868C13.002 3.60323 13.0048 3.6268 13.0048 3.6268C13.002 3.61466 13.0048 3.60037 13.0048 3.5868C13.002 3.57395 12.9964 3.5618 12.9957 3.55037H12.9816Z" fill="#82373B"/>
<path id="Fill 180" fill-rule="evenodd" clip-rule="evenodd" d="M13.1043 3.55875L13.11 3.63161L13.1184 3.56304L13.1043 3.55875Z" fill="#82373B"/>
<path id="Fill 182" fill-rule="evenodd" clip-rule="evenodd" d="M13.0766 3.70951C13.0795 3.69808 13.0766 3.68594 13.0766 3.67451C13.0738 3.66236 13.071 3.65236 13.0667 3.63808C13.0795 3.64808 13.0823 3.66236 13.0893 3.67594C13.0893 3.69022 13.0851 3.69951 13.0766 3.70951Z" fill="#82373B"/>
<path id="Fill 184" fill-rule="evenodd" clip-rule="evenodd" d="M13.2022 3.67885C13.2022 3.67885 13.205 3.70242 13.1993 3.71956C13.1951 3.73885 13.1923 3.73885 13.1789 3.75028C13.1951 3.73885 13.2078 3.73456 13.2121 3.72314C13.2149 3.70528 13.205 3.68028 13.2022 3.67885Z" fill="#82373B"/>
<path id="Fill 186" fill-rule="evenodd" clip-rule="evenodd" d="M13.2257 3.65375C13.2144 3.65661 13.2144 3.62018 13.208 3.60089C13.2115 3.59946 13.2144 3.60089 13.22 3.61018C13.2257 3.61304 13.2228 3.63875 13.2257 3.65375Z" fill="#82373B"/>
<path id="Fill 188" fill-rule="evenodd" clip-rule="evenodd" d="M13.3096 3.64105L13.3153 3.61034H13.3245V3.63248C13.3245 3.63534 13.3125 3.64105 13.3096 3.64105Z" fill="#82373B"/>
<path id="Fill 190" fill-rule="evenodd" clip-rule="evenodd" d="M13.3041 3.72073C13.3098 3.73073 13.3168 3.74145 13.319 3.75288C13.3218 3.76288 13.3168 3.76788 13.3098 3.78216L13.3246 3.78359C13.3331 3.77216 13.3359 3.76288 13.3331 3.75288C13.3331 3.74145 13.3274 3.73502 13.3168 3.72502L13.3041 3.72073Z" fill="#82373B"/>
<path id="Fill 192" fill-rule="evenodd" clip-rule="evenodd" d="M13.3276 3.78893L13.31 3.7875L13.3149 3.7525L13.3001 3.72321C13.3029 3.72321 13.3071 3.72464 13.31 3.72607H13.3029L13.3248 3.7525C13.3248 3.7625 13.322 3.76821 13.3163 3.77893L13.3248 3.78321L13.3191 3.78035C13.3276 3.77107 13.3304 3.7625 13.3276 3.7525L13.3163 3.72893C13.3333 3.73464 13.3389 3.74178 13.3389 3.7525C13.3389 3.7625 13.3389 3.7725 13.3304 3.78607L13.3276 3.78893Z" fill="#83353B"/>
<path id="Fill 194" fill-rule="evenodd" clip-rule="evenodd" d="M13.4075 3.72891L13.4118 3.77248L13.4224 3.76534L13.4202 3.72891H13.4075Z" fill="#82373B"/>
<path id="Fill 196" fill-rule="evenodd" clip-rule="evenodd" d="M12.7872 3.63124C12.7541 3.6441 12.7421 3.66195 12.7265 3.67838L12.6284 3.62695C12.6136 3.64267 12.608 3.66052 12.6136 3.67981C12.6221 3.69838 12.6524 3.7291 12.6757 3.74124C12.6701 3.77052 12.6602 3.79195 12.6524 3.8141C12.6397 3.84052 12.6192 3.87267 12.6164 3.8841C12.6164 3.89481 12.6136 3.91981 12.6312 3.92838C12.6468 3.9341 12.7061 3.92267 12.7265 3.9241C12.7209 3.9341 12.7152 3.95338 12.7152 3.96052C12.7181 3.96767 12.7237 3.97052 12.7392 3.97052C12.7364 3.98124 12.7265 3.99267 12.7322 3.99981C12.7442 4.00767 12.7569 4.00767 12.7696 4.00624C12.7625 4.01338 12.7512 4.02338 12.7392 4.03695C12.7181 4.05552 12.6976 4.07624 12.6905 4.08624C12.6757 4.10981 12.6729 4.13195 12.7032 4.13052C12.6934 4.14338 12.6828 4.1541 12.6828 4.16695C12.6849 4.17981 12.6934 4.18767 12.7131 4.17981C12.7004 4.2091 12.7089 4.23695 12.7131 4.26767C12.7032 4.29124 12.7061 4.31052 12.7032 4.33981C12.6828 4.35267 12.68 4.36767 12.6644 4.3941C12.6524 4.42195 12.6256 4.43052 12.6136 4.49052L12.7004 4.51267C12.7032 4.50052 12.7152 4.49195 12.7181 4.4791C12.7237 4.46838 12.7237 4.45124 12.7209 4.4391C12.7392 4.41267 12.7745 4.36052 12.7844 4.33124C12.8035 4.32195 12.8176 4.31338 12.8338 4.31338C12.8465 4.31338 12.8564 4.32195 12.8727 4.33124C12.8642 4.35552 12.8465 4.38195 12.8465 4.41552V4.50767C12.8409 4.52838 12.8162 4.52838 12.8035 4.59838L12.8825 4.62052C12.8974 4.59695 12.9185 4.59267 12.9235 4.5841L12.9277 4.48767C12.939 4.44338 13.0025 4.4041 13.0025 4.35838C13.0258 4.35838 13.0329 4.35981 13.0435 4.35552C13.0562 4.34981 13.059 4.3441 13.0682 4.3341C13.071 4.34981 13.0823 4.34981 13.0922 4.34981C13.1014 4.34981 13.124 4.33552 13.1303 4.33124C13.136 4.33981 13.1374 4.34695 13.1515 4.34981C13.1607 4.35267 13.1952 4.34695 13.208 4.34552L13.143 4.45124C13.1402 4.46267 13.1458 4.46981 13.1374 4.4791C13.136 4.49195 13.1254 4.49624 13.1211 4.50767L13.1952 4.5241L13.2051 4.49195C13.2228 4.48624 13.2355 4.48195 13.2432 4.47267C13.2503 4.4641 13.2503 4.44338 13.256 4.43195C13.2792 4.4141 13.3195 4.37338 13.3484 4.34124C13.3661 4.34552 13.3908 4.36052 13.4021 4.38338C13.4049 4.40695 13.4077 4.4541 13.3936 4.48624L13.3484 4.56195L13.3428 4.57552L13.4176 4.60052L13.4656 4.56481V4.51267C13.4917 4.46981 13.5249 4.44624 13.5581 4.41981C13.5581 4.41838 13.5637 4.36052 13.5609 4.36052C13.5524 4.35552 13.5454 4.35838 13.5454 4.34552C13.5425 4.3341 13.5425 4.30338 13.5454 4.29124C13.5482 4.28552 13.5581 4.27838 13.5581 4.27267C13.5454 4.26052 13.551 4.22124 13.5524 4.19195C13.5524 4.15838 13.599 4.11981 13.6032 4.10124L13.6089 4.06481C13.6032 4.05838 13.5962 4.05124 13.5962 4.0441C13.5962 4.03695 13.6032 4.02624 13.6089 4.01767L13.6202 4.00267V3.9141C13.6174 3.90624 13.6089 3.89195 13.6004 3.8891C13.5941 3.8891 13.5814 3.89767 13.5729 3.90624L13.5291 3.93838C13.5094 3.94481 13.4917 3.94767 13.4557 3.93838H13.3992C13.3717 3.94767 13.3555 3.9491 13.328 3.93695H13.2948C13.2835 3.94338 13.2687 3.95052 13.2588 3.95338C13.2447 3.95624 13.2327 3.95624 13.2228 3.95338C13.136 3.9591 13.1592 3.96624 13.1331 3.97052C13.1155 3.96767 13.1211 3.95624 13.0435 3.95624L13.016 3.94767C12.9778 3.92267 12.9475 3.88267 12.9235 3.83481C12.9997 3.81124 13.0329 3.7891 13.059 3.73481L12.9475 3.73838L12.7872 3.63124Z" fill="#FBFC2B"/>
<path id="Fill 198" fill-rule="evenodd" clip-rule="evenodd" d="M12.7389 3.9759L12.7114 3.96162C12.7114 3.95376 12.7128 3.94233 12.7185 3.92876C12.7156 3.92876 12.7029 3.93162 12.6938 3.93162C12.6768 3.93376 12.6606 3.93376 12.6465 3.93376C12.6076 3.92448 12.6105 3.89519 12.6133 3.88233C12.6133 3.87519 12.6189 3.86448 12.6288 3.84733C12.6345 3.83519 12.6408 3.82233 12.6465 3.81162C12.6578 3.78876 12.6648 3.76948 12.6698 3.74162C12.6465 3.73162 12.6161 3.69948 12.6105 3.68305C12.6041 3.6609 12.6076 3.6409 12.626 3.62305L12.6909 3.65662L12.626 3.63305C12.6161 3.64519 12.6133 3.66233 12.6189 3.67733C12.626 3.69519 12.6578 3.72448 12.6768 3.73876C12.6754 3.77233 12.6648 3.79162 12.6578 3.81376C12.6521 3.82805 12.6436 3.8409 12.6366 3.85305C12.6316 3.86448 12.6246 3.87805 12.6246 3.88376C12.6218 3.9009 12.6189 3.91733 12.6316 3.92305C12.6606 3.92448 12.6768 3.92305 12.6909 3.92019C12.7029 3.92019 12.7156 3.91876 12.7241 3.91876L12.7389 3.9759ZM12.6853 4.11662C12.6726 4.10733 12.6768 4.0959 12.6853 4.08448C12.6938 4.07519 12.7058 4.05948 12.7241 4.04448L12.765 4.00376C12.7488 4.0109 12.7389 4.0109 12.729 4.00376L12.7389 3.9759V3.98305L12.7679 4.00233L12.7516 4.03162C12.7156 4.06805 12.7001 4.08019 12.6938 4.09162C12.6853 4.10162 12.6825 4.1109 12.6853 4.11662ZM12.7001 4.33162C12.7001 4.29805 12.7001 4.28305 12.7086 4.26448C12.7001 4.22876 12.6959 4.20448 12.7086 4.17805C12.6881 4.18805 12.6796 4.1809 12.6768 4.16733C12.6768 4.15733 12.6825 4.14876 12.6909 4.13805C12.6938 4.15162 12.6881 4.15876 12.6881 4.16733L12.6973 4.16162L12.7156 4.18233C12.7058 4.20733 12.7114 4.22733 12.7156 4.25233C12.7114 4.28305 12.7114 4.29805 12.7114 4.31519C12.7058 4.32162 12.7029 4.32733 12.7001 4.33162ZM13.137 4.47948H13.1356L13.137 4.44876L13.2048 4.34305C13.1963 4.35233 13.173 4.35519 13.1596 4.35519L13.1279 4.33876C13.1003 4.3609 13.077 4.37376 13.0643 4.34019L13.0919 4.3459C13.0947 4.3459 13.1046 4.34448 13.1279 4.32733L13.1512 4.3459C13.1716 4.3459 13.1963 4.34162 13.2076 4.34019L13.137 4.47948ZM13.4201 4.60662L13.3403 4.58019L13.3912 4.48519C13.3996 4.46448 13.4018 4.42805 13.3996 4.38305C13.3883 4.36519 13.3665 4.34948 13.3481 4.3459C13.3248 4.37519 13.2832 4.41805 13.2585 4.43662L13.245 4.47662C13.238 4.48519 13.2281 4.4909 13.2147 4.49519L13.1992 4.52662L13.1208 4.51162L13.137 4.48233L13.1335 4.49733L13.1949 4.51876L13.1992 4.49233C13.2253 4.47948 13.2323 4.47662 13.238 4.46948L13.2535 4.42805C13.2796 4.40805 13.3163 4.36805 13.3425 4.33733C13.3714 4.34019 13.3968 4.35519 13.4074 4.38162C13.4116 4.42805 13.4088 4.46448 13.3996 4.48948L13.3509 4.56448L13.4201 4.59805L13.4625 4.56162V4.51305C13.4836 4.47233 13.5126 4.44876 13.5401 4.42662C13.5549 4.37376 13.5549 4.36376 13.5549 4.3609C13.5373 4.33448 13.5373 4.3009 13.5401 4.2909C13.5401 4.26162 13.5458 4.2259 13.5479 4.1909C13.5479 4.16876 13.5676 4.14448 13.5839 4.12519C13.5909 4.11519 13.5994 4.10448 13.6008 4.09876L13.6036 4.06519C13.5909 4.03733 13.5966 4.0259 13.6036 4.01662L13.6142 3.91448H13.6114L13.5761 3.91019L13.5316 3.94233C13.5126 3.94948 13.4886 3.95376 13.4561 3.94376H13.3996C13.3728 3.9509 13.3523 3.95376 13.3248 3.9409L13.2945 3.94233C13.2832 3.9509 13.2683 3.95662 13.2585 3.95948L13.2232 3.95376V3.95948C13.1639 3.96305 13.1568 3.96733 13.1512 3.97019H13.1208C13.1095 3.96733 13.1003 3.96162 13.0439 3.96162L13.0135 3.9509C12.9775 3.92876 12.9472 3.89233 12.9182 3.83805C12.9994 3.80876 13.0312 3.78448 13.053 3.73162L12.9472 3.74162L12.7841 3.63662C12.765 3.64519 12.7516 3.65948 12.7389 3.67162L12.7319 3.66876C12.746 3.64948 12.7622 3.63519 12.7869 3.62733L12.9486 3.73448L13.0587 3.72876C13.0382 3.79162 13.005 3.81662 12.9239 3.8409C12.957 3.88662 12.9846 3.92305 13.0163 3.94376L13.0467 3.9509C13.1003 3.9509 13.1123 3.95662 13.1236 3.96162C13.154 3.95662 13.161 3.95376 13.2232 3.94805L13.2585 3.94948C13.2669 3.94805 13.2796 3.9409 13.2888 3.93662L13.3276 3.93376C13.358 3.94376 13.3714 3.94233 13.3968 3.93376H13.4561C13.4914 3.94233 13.5069 3.93805 13.5274 3.93376L13.5705 3.90162C13.5733 3.89805 13.5881 3.88376 13.5994 3.88376C13.6114 3.88662 13.6227 3.90733 13.6227 3.91448L13.6241 4.00233L13.6008 4.04448L13.6086 4.10162C13.6065 4.10948 13.5994 4.11948 13.5909 4.1309C13.5761 4.14876 13.5578 4.1709 13.5578 4.19233C13.5549 4.21305 13.5507 4.25805 13.5634 4.27019C13.5479 4.30376 13.5458 4.33448 13.5479 4.3459C13.5648 4.35948 13.5676 4.3609 13.5634 4.41376C13.5189 4.4559 13.4914 4.47948 13.4709 4.51448L13.4681 4.56448L13.4201 4.60662ZM12.885 4.62448L12.8039 4.60376C12.8081 4.55233 12.8201 4.53662 12.8314 4.52448L12.8413 4.41519C12.8413 4.39162 12.849 4.37233 12.8561 4.35519L12.8342 4.32162C12.8201 4.32162 12.8081 4.32448 12.7869 4.3359C12.7778 4.3609 12.7418 4.41519 12.7262 4.44019C12.7262 4.4459 12.729 4.46662 12.7241 4.48233L12.7001 4.5159L12.6133 4.49519C12.6161 4.44876 12.6316 4.4309 12.6436 4.41519L12.6698 4.37376C12.6768 4.35805 12.6853 4.3459 12.6973 4.3359C12.6909 4.35805 12.6853 4.36662 12.6796 4.37876C12.6648 4.40733 12.6606 4.41519 12.6521 4.42233C12.6394 4.43662 12.626 4.45448 12.6189 4.49233L12.7029 4.50876L12.7128 4.47948C12.7156 4.46805 12.7185 4.45448 12.7156 4.43876C12.7333 4.40948 12.7693 4.35805 12.7806 4.33019C12.8159 4.30948 12.8399 4.30662 12.8618 4.32162C12.8752 4.34162 12.8702 4.34948 12.8674 4.3609C12.8589 4.37662 12.849 4.39448 12.849 4.41519V4.50733C12.8286 4.54233 12.8159 4.55733 12.8081 4.59805L12.8822 4.61376C12.8893 4.6009 12.9006 4.59376 12.9083 4.58805L12.9239 4.48805C12.9281 4.46662 12.9472 4.44448 12.9592 4.42662C12.9803 4.40448 12.9966 4.38162 12.9966 4.35805H13.0178L13.0255 4.35233L13.0439 4.35948L13.005 4.3609C13.005 4.3859 12.9874 4.40948 12.969 4.43376C12.9542 4.45162 12.9387 4.4709 12.9359 4.4909L12.9281 4.58448C12.9055 4.6009 12.8949 4.60948 12.8879 4.62162L12.885 4.62448Z" fill="#E8D629"/>
<path id="Fill 200" fill-rule="evenodd" clip-rule="evenodd" d="M12.7486 3.77218L12.7803 3.78646C12.7818 3.79146 12.7923 3.79432 12.798 3.79575C12.8036 3.79575 12.805 3.79146 12.8107 3.78718L12.8396 3.77218C12.8227 3.76932 12.8163 3.75789 12.8008 3.75789C12.7803 3.75789 12.769 3.76789 12.7486 3.77218Z" fill="#624E0F"/>
<path id="Fill 202" fill-rule="evenodd" clip-rule="evenodd" d="M12.7982 3.80163L12.746 3.7752H12.7488V3.77235H12.7544C12.7806 3.75735 12.7869 3.75592 12.801 3.75592L12.8286 3.76806L12.801 3.76235L12.7594 3.7752L12.7982 3.79592V3.79163V3.79592L12.8039 3.78663L12.8342 3.77092L12.8413 3.7752L12.7982 3.80163Z" fill="#624E0F"/>
<path id="Fill 204" fill-rule="evenodd" clip-rule="evenodd" d="M12.8079 4.14884C12.8079 4.1517 12.8037 4.15312 12.8009 4.1517C12.7981 4.11241 12.7903 4.08598 12.7776 4.05812C12.7903 4.07884 12.8009 4.11527 12.8079 4.14884Z" fill="#C2A21F"/>
<path id="Fill 206" fill-rule="evenodd" clip-rule="evenodd" d="M12.9926 4.15318C12.9997 4.15461 13.0074 4.15461 13.0102 4.15175C13.0131 4.14318 13.0053 4.13247 13.0025 4.12532C12.9926 4.10318 12.9841 4.0789 12.9799 4.06961C12.9778 4.06532 12.9721 4.06818 12.9721 4.07247C12.9799 4.09175 12.9898 4.14604 12.9926 4.15318Z" fill="#C2A21F"/>
<path id="Fill 208" fill-rule="evenodd" clip-rule="evenodd" d="M13.0946 4.14058C13.0946 4.1463 13.0798 4.14058 13.077 4.13344C13.077 4.12558 13.0558 4.04987 13.0614 4.04701C13.0643 4.04558 13.077 4.07201 13.0819 4.08487C13.0819 4.09201 13.0918 4.11844 13.0946 4.14058Z" fill="#C2A21F"/>
<path id="Fill 210" fill-rule="evenodd" clip-rule="evenodd" d="M13.0795 4.29414C13.0795 4.29842 13.0922 4.29414 13.0972 4.28985C13.1099 4.26914 13.1275 4.24699 13.1332 4.23699C13.136 4.22699 13.1515 4.16842 13.1459 4.16842C13.1459 4.16699 13.1304 4.19914 13.1155 4.22842C13.0972 4.26056 13.0795 4.28985 13.0795 4.29414Z" fill="#C2A21F"/>
<path id="Fill 212" fill-rule="evenodd" clip-rule="evenodd" d="M13.0823 4.30099L13.0766 4.29813C13.0738 4.29099 13.0738 4.28813 13.1098 4.22599L13.1303 4.18813C13.1331 4.18527 13.1331 4.18527 13.1359 4.18527L13.1183 4.23099C13.0893 4.28027 13.0851 4.29099 13.0851 4.29384L13.0823 4.29099V4.2967L13.1126 4.2567C13.1253 4.23384 13.1359 4.2017 13.1373 4.18813C13.1514 4.19384 13.1373 4.23813 13.1359 4.23813L13.0823 4.30099Z" fill="#C2A21F"/>
<path id="Fill 214" fill-rule="evenodd" clip-rule="evenodd" d="M13.1815 4.26201C13.1759 4.26344 13.1928 4.21058 13.1928 4.20058C13.1956 4.18558 13.1992 4.15844 13.2048 4.12558C13.2119 4.1713 13.2048 4.22558 13.1815 4.26201Z" fill="#C2A21F"/>
<path id="Fill 216" fill-rule="evenodd" clip-rule="evenodd" d="M13.1815 4.27045L13.1759 4.26473C13.173 4.26187 13.173 4.25759 13.1815 4.22187L13.1992 4.12402C13.2175 4.17402 13.209 4.22687 13.1872 4.2633L13.1815 4.27045Z" fill="#C2A21F"/>
<path id="Fill 218" fill-rule="evenodd" clip-rule="evenodd" d="M13.2436 4.09864C13.2408 4.1015 13.1956 4.02579 13.1998 4.02579C13.2019 4.02364 13.2351 4.07364 13.2408 4.08079C13.2436 4.08579 13.245 4.0915 13.2436 4.09864Z" fill="#C2A21F"/>
<path id="Fill 220" fill-rule="evenodd" clip-rule="evenodd" d="M13.3455 4.15321C13.3427 4.14893 13.3427 4.12821 13.3385 4.10178C13.3307 4.07536 13.3194 4.04964 13.3222 4.04321C13.3251 4.04036 13.3307 4.04321 13.3385 4.04607C13.3399 4.05964 13.3455 4.11536 13.3526 4.14893C13.3526 4.15178 13.3512 4.15321 13.3455 4.15321Z" fill="#C2A21F"/>
<path id="Fill 222" fill-rule="evenodd" clip-rule="evenodd" d="M13.4172 4.08622C13.4144 4.08336 13.4271 4.11265 13.4377 4.14622C13.4448 4.18122 13.4532 4.24122 13.456 4.23693C13.4603 4.23407 13.4603 4.22693 13.468 4.2255C13.4793 4.22407 13.5168 4.2255 13.5153 4.22407C13.4913 4.20193 13.468 4.1855 13.456 4.16407C13.4377 4.1405 13.4271 4.10979 13.4172 4.08622Z" fill="#C2A21F"/>
<path id="Fill 224" fill-rule="evenodd" clip-rule="evenodd" d="M13.4531 4.24376H13.4474L13.4446 4.21305C13.4404 4.19519 13.4382 4.16733 13.4326 4.14876C13.427 4.1309 13.4199 4.11233 13.4171 4.10162C13.4171 4.10162 13.4171 4.10305 13.4199 4.10305C13.4171 4.09876 13.4142 4.0959 13.4142 4.09162C13.4227 4.10162 13.427 4.11019 13.4326 4.11662C13.4404 4.1309 13.4474 4.1459 13.4573 4.16019C13.4707 4.17805 13.4862 4.19233 13.5067 4.20876L13.4531 4.24376Z" fill="#C2A21F"/>
<path id="Fill 226" fill-rule="evenodd" clip-rule="evenodd" d="M13.7799 3.97729C14.0001 4.02301 14.2006 4.07658 14.4003 4.14301C14.6015 4.20729 14.7921 4.28587 14.9862 4.37087L14.6636 5.03444C14.4787 4.96372 14.3022 4.90944 14.1201 4.85087C13.9422 4.79372 13.7672 4.74015 13.5872 4.68444L13.7799 3.97729Z" fill="white"/>
<path id="Fill 228" fill-rule="evenodd" clip-rule="evenodd" d="M13.7799 3.98297L13.5907 4.6844L13.758 4.73083C13.878 4.76726 14.0001 4.80583 14.1229 4.84512L14.2034 4.87154C14.353 4.92012 14.5048 4.97083 14.658 5.0294L14.9834 4.36797C14.8168 4.30083 14.6177 4.21869 14.4003 4.14726C14.2034 4.08226 14.0001 4.02869 13.7799 3.98297ZM14.6636 5.04154L14.6608 5.0394C14.5048 4.98012 14.353 4.93012 14.2006 4.88154L14.1187 4.85512C13.998 4.81583 13.8752 4.77797 13.7552 4.74154L13.5872 4.68869L13.7785 3.97583C14.0029 4.0194 14.2048 4.07369 14.4032 4.13797C14.6192 4.20726 14.8196 4.29297 14.9876 4.36654L14.6636 5.04154Z" fill="white"/>
<path id="Fill 230" fill-rule="evenodd" clip-rule="evenodd" d="M13.7399 4.13354C13.7399 4.13354 14.0448 4.20212 14.3357 4.29783C14.6279 4.39426 14.9145 4.51569 14.9145 4.51569C14.9117 4.51569 14.7295 4.8964 14.7295 4.8964C14.5502 4.82426 14.3674 4.75712 14.1825 4.69712C14.0004 4.63712 13.8154 4.5814 13.627 4.5364L13.7399 4.13354Z" fill="#CB0028"/>
<path id="Fill 232" fill-rule="evenodd" clip-rule="evenodd" d="M14.7325 4.90235H14.7268C14.556 4.83235 14.3739 4.76592 14.1826 4.70306C14.009 4.64592 13.8212 4.58735 13.6271 4.54235L13.7344 4.13235C13.7492 4.13092 14.0471 4.19949 14.3358 4.29377C14.5299 4.3552 14.861 4.48235 14.9118 4.51163C14.8857 4.50877 14.6195 4.39592 14.3344 4.30235C14.0443 4.20735 13.7428 4.14092 13.7372 4.13806L13.632 4.53663C13.824 4.57592 14.0118 4.63449 14.1854 4.69306C14.3767 4.75449 14.556 4.82163 14.7254 4.88806C14.8885 4.5552 14.9061 4.51592 14.9118 4.51163C14.916 4.51306 14.9188 4.51592 14.9188 4.51592C14.9118 4.52877 14.7833 4.79663 14.7325 4.89806V4.90235Z" fill="#D30028"/>
<path id="Fill 234" fill-rule="evenodd" clip-rule="evenodd" d="M13.7648 4.32193C13.7937 4.30407 13.8128 4.29836 13.8325 4.27193H13.937L13.9398 4.3105C13.9674 4.32193 13.9801 4.33693 14.009 4.34979C14.0337 4.36407 14.0725 4.37336 14.0986 4.38622L14.3288 4.40693C14.3591 4.41264 14.4029 4.4255 14.4304 4.4405C14.4579 4.4555 14.4749 4.47693 14.4897 4.50336C14.5384 4.51836 14.5836 4.52836 14.6323 4.53693C14.6817 4.54479 14.7424 4.54764 14.789 4.54907C14.8137 4.55764 14.8137 4.5705 14.8017 4.58407C14.8017 4.58407 14.7756 4.61764 14.7036 4.61764C14.6323 4.6205 14.5532 4.57693 14.5172 4.58407C14.5201 4.60479 14.5561 4.64979 14.5991 4.66907V4.77122L14.5794 4.7905L14.5561 4.7755C14.5737 4.75193 14.5688 4.72264 14.5603 4.69693C14.5462 4.67336 14.5462 4.66622 14.5144 4.66407C14.4791 4.65693 14.4558 4.64836 14.4099 4.61764L14.3951 4.6205C14.3838 4.63407 14.3739 4.64836 14.3506 4.65836L14.3083 4.65693C14.3083 4.65693 14.2031 4.63336 14.2031 4.63193C14.2031 4.6305 14.2003 4.61479 14.2031 4.61336C14.2074 4.61193 14.2391 4.61193 14.2405 4.61193C14.2638 4.6205 14.3104 4.6205 14.3104 4.6205V4.57979L14.3796 4.5755C14.3676 4.52693 14.3619 4.49479 14.2956 4.48407L14.093 4.4905V4.51836C14.0443 4.51193 13.9525 4.51193 13.9038 4.52693C13.8777 4.52836 13.8368 4.54264 13.8184 4.54264L13.7994 4.53693C13.7852 4.53264 13.7852 4.52836 13.7909 4.5155C13.8777 4.51193 13.8932 4.50336 13.9194 4.4905C13.9208 4.48264 13.9109 4.46407 13.9066 4.46407C13.8488 4.46122 13.8064 4.46407 13.7909 4.46122C13.7676 4.45479 13.7344 4.4405 13.7344 4.4405C13.7344 4.4405 13.7316 4.41979 13.7344 4.41979L13.7704 4.42764C13.8064 4.43622 13.8706 4.43336 13.8876 4.4255V4.39622C13.8876 4.38193 13.8777 4.36764 13.8749 4.36764C13.8706 4.36622 13.8128 4.36122 13.7937 4.36122C13.7605 4.35407 13.7648 4.33622 13.7648 4.32193Z" fill="black"/>
<path id="Fill 236" fill-rule="evenodd" clip-rule="evenodd" d="M13.8323 4.61987C13.8831 4.59887 13.8958 4.58687 13.9163 4.57487L13.8626 4.54787L13.8294 4.54987L13.7906 4.54787C13.78 4.54387 13.7313 4.52187 13.7313 4.51087L13.7398 4.49887C13.7525 4.51487 13.7758 4.52587 13.7906 4.53187H13.8294H13.8626L13.9064 4.53587C13.9134 4.53987 13.9261 4.56887 13.9233 4.58287C13.9014 4.60187 13.8845 4.61187 13.8323 4.61987ZM14.3765 4.68587C14.3589 4.62787 14.3504 4.59287 14.2953 4.57887L14.0927 4.58487L14.0998 4.61587C14.0723 4.62387 14.0447 4.61987 14.0144 4.61987C13.9671 4.61987 13.929 4.62587 13.9064 4.63587C13.8901 4.63787 13.8753 4.64487 13.8598 4.64887C13.845 4.65687 13.8294 4.66087 13.8181 4.66087L13.7829 4.63787C13.7906 4.63587 13.7934 4.63387 13.8005 4.63187L13.8181 4.65287V4.64487C13.8294 4.64487 13.845 4.64087 13.8598 4.63387C13.8753 4.63187 13.8901 4.62387 13.9043 4.62387C13.9367 4.60987 13.9883 4.60587 14.0144 4.60587C14.0447 4.60587 14.0751 4.60987 14.0956 4.61187L14.0843 4.58087L14.2953 4.56487C14.3617 4.58087 14.3701 4.62387 14.3821 4.68387L14.3765 4.68587ZM14.3532 4.82287L14.3052 4.81887C14.1979 4.78187 14.1979 4.78187 14.1979 4.77787C14.2029 4.74487 14.2043 4.74287 14.2403 4.74287C14.2636 4.75287 14.3109 4.75487 14.3109 4.75487L14.3052 4.70587L14.3504 4.69587L14.3109 4.71187L14.3151 4.76287C14.3109 4.76787 14.2621 4.76787 14.2389 4.75887H14.2043C14.2099 4.77587 14.308 4.80587 14.308 4.80587L14.3532 4.80887C14.3716 4.79387 14.3793 4.77987 14.3892 4.75887C14.3949 4.76287 14.4005 4.76287 14.4033 4.76487C14.3864 4.78987 14.3765 4.80687 14.3532 4.82287ZM14.5798 5.00887L14.553 4.98487C14.5685 4.94387 14.5629 4.90687 14.5558 4.87387C14.541 4.83687 14.5381 4.83287 14.5149 4.83087C14.4817 4.82087 14.4584 4.80887 14.4181 4.77187C14.4661 4.79787 14.4873 4.80887 14.5149 4.81487C14.5438 4.81687 14.548 4.83087 14.56 4.85587C14.5741 4.90887 14.5798 4.94987 14.56 4.98287L14.5798 5.00087L14.5741 4.99487L14.5946 4.96787V4.83087C14.553 4.80887 14.5149 4.74487 14.512 4.71187C14.5438 4.70187 14.5657 4.71187 14.5918 4.72387C14.6278 4.73487 14.6666 4.75287 14.7033 4.75287C14.7739 4.75087 14.7958 4.70587 14.7958 4.70587C14.7421 4.66687 14.6814 4.66287 14.632 4.65287C14.5819 4.64087 14.5353 4.62787 14.4873 4.60587C14.4718 4.56487 14.4513 4.53587 14.428 4.51587C14.4005 4.49687 14.3589 4.47887 14.3285 4.47187L14.0984 4.44187C14.0829 4.43387 14.0666 4.42487 14.0518 4.41487C14.0334 4.40687 14.0186 4.39887 14.0059 4.39087C13.9911 4.38387 13.9826 4.37187 13.9699 4.36187C13.9593 4.35387 13.9494 4.34487 13.9367 4.33487L13.9318 4.27587L13.8323 4.28187C13.821 4.30887 13.8061 4.31887 13.7857 4.33287C13.7701 4.37187 13.7701 4.38387 13.7934 4.39087C13.7991 4.38387 13.8725 4.39887 13.8774 4.40287C13.8803 4.40687 13.893 4.42487 13.893 4.44587V4.48887C13.8683 4.51487 13.8033 4.51087 13.7701 4.50287L13.7469 4.48887L13.7525 4.48087C13.8365 4.50887 13.8711 4.49287 13.8845 4.48087L13.8831 4.44787C13.8683 4.41287 13.8132 4.40487 13.7934 4.40487C13.7603 4.39487 13.7603 4.37187 13.7603 4.34887V4.34487L13.78 4.32287C13.8005 4.30887 13.8132 4.29787 13.8266 4.26987L13.9367 4.26587L13.9438 4.32887C13.9551 4.32887 13.9643 4.34087 13.9784 4.34887C13.9883 4.35787 13.9946 4.36987 14.0116 4.37787C14.0214 4.38787 14.0391 4.39487 14.0539 4.40287C14.0694 4.41287 14.0843 4.42087 14.0998 4.43087L14.3285 4.45787C14.3589 4.46387 14.4054 4.48087 14.4337 4.50887C14.4584 4.52587 14.476 4.55587 14.4937 4.59487C14.5381 4.61387 14.5833 4.62787 14.632 4.63787C14.6814 4.64887 14.7421 4.65287 14.7887 4.65687H14.7944L14.8141 4.68087C14.8043 4.71387 14.7781 4.76487 14.7033 4.76487C14.6666 4.76487 14.625 4.75087 14.589 4.73487C14.5629 4.72487 14.541 4.71787 14.524 4.71787C14.524 4.73487 14.5586 4.79787 14.6017 4.82287V4.97687L14.5798 5.00887Z" fill="black"/>
<path id="Fill 238" fill-rule="evenodd" clip-rule="evenodd" d="M14.21 4.56195C14.2389 4.57338 14.2622 4.57623 14.3109 4.5798L14.3794 4.57623C14.3674 4.52695 14.3618 4.4948 14.2954 4.48409L14.0928 4.49052V4.51838C14.1564 4.54123 14.1881 4.55338 14.21 4.56195Z" fill="white"/>
<path id="Fill 240" fill-rule="evenodd" clip-rule="evenodd" d="M14.3106 4.58409C14.264 4.58123 14.2386 4.57838 14.2076 4.56766C14.1716 4.55195 14.1412 4.54052 14.0925 4.52266L14.0847 4.49052L14.2958 4.4798C14.3614 4.49052 14.3699 4.52123 14.3826 4.5648L14.377 4.56623C14.3586 4.52409 14.3509 4.49909 14.2958 4.48909L14.0925 4.49338L14.0996 4.51552C14.1469 4.53123 14.1744 4.5448 14.1949 4.55195C14.24 4.56766 14.264 4.5698 14.3106 4.57552L14.3614 4.5698L14.3106 4.58409Z" fill="black"/>
<path id="Fill 242" fill-rule="evenodd" clip-rule="evenodd" d="M10.1704 4.9149L9.80127 3.5299L10.3632 2.84204L11.1467 3.29633L11.2829 4.76561C10.882 4.79633 10.6201 4.83561 10.1704 4.9149Z" fill="#1E2788"/>
<path id="Fill 244" fill-rule="evenodd" clip-rule="evenodd" d="M10.3621 2.84597L9.80658 3.5324L10.1715 4.90955C10.612 4.8324 10.8767 4.79097 11.2833 4.76026L11.1449 3.29812L10.3621 2.84597ZM10.1652 4.92169V4.9174L9.79529 3.5324L10.3593 2.8374L11.152 3.29097L11.2875 4.76455C10.8767 4.80026 10.6106 4.8424 10.1708 4.92026L10.1652 4.92169Z" fill="#160080"/>
<path id="Fill 246" fill-rule="evenodd" clip-rule="evenodd" d="M8.85518 3.76107L8.98718 3.86535L8.96389 4.05107L9.13612 3.97892L9.27448 4.08464L9.29212 3.91464L9.43542 3.85892L9.31824 3.74464L9.34295 3.57392C9.34295 3.57392 9.17212 3.63678 9.17212 3.63535C9.17212 3.63249 9.04789 3.53107 9.04789 3.53249C9.04789 3.53535 9.02036 3.69249 9.02036 3.69249L8.85518 3.76107Z" fill="#FBFC2B"/>
<path id="Fill 248" fill-rule="evenodd" clip-rule="evenodd" d="M9.25198 4.14856L9.44298 4.29156L9.46898 4.06656L9.67598 3.97856L9.50598 3.83756L9.54098 3.59156C9.31298 3.68956 9.31098 3.68956 9.30698 3.68956C9.29098 3.67756 9.13898 3.54656 9.12898 3.54156C9.13498 3.54656 9.09998 3.75956 9.09998 3.75956L8.85898 3.86356L9.05298 3.99456L9.01998 4.26156L9.25198 4.14856ZM9.45898 4.32256L9.25198 4.16856L9.01198 4.26956L9.03698 3.99856L8.84998 3.86356L9.08798 3.75056C9.12098 3.53356 9.12098 3.52956 9.12498 3.52956C9.13498 3.52756 9.31098 3.66956 9.31298 3.66956C9.31998 3.66656 9.54498 3.58456 9.54498 3.58456L9.51998 3.83056L9.68598 3.98256L9.48098 4.07656L9.45898 4.32256Z" fill="#F4C627"/>
<path id="Fill 250" fill-rule="evenodd" clip-rule="evenodd" d="M8.85657 3.7624L9.43257 3.85597L9.28927 3.91455L9.15163 3.81669C9.15163 3.81669 9.27727 4.08026 9.27445 4.07883C9.27163 4.07883 9.14033 3.98169 9.1361 3.9774L9.1488 3.81669L8.96668 4.04955C8.96668 4.04669 8.9928 3.86455 8.9928 3.86455L8.85657 3.7624Z" fill="#F4C427"/>
<path id="Fill 252" fill-rule="evenodd" clip-rule="evenodd" d="M9.0178 3.69552L9.15121 3.81124L9.04816 3.53195L9.0178 3.69552Z" fill="#F4C627"/>
<path id="Fill 254" fill-rule="evenodd" clip-rule="evenodd" d="M9.16952 3.64265C9.17235 3.64408 9.14905 3.81122 9.15187 3.81122C9.16387 3.79193 9.34317 3.57836 9.34035 3.57836C9.34035 3.57836 9.17517 3.64408 9.16952 3.64265Z" fill="#F4C627"/>
<path id="Fill 256" fill-rule="evenodd" clip-rule="evenodd" d="M14.3479 3.52531L14.3839 3.69246L14.2434 3.81674L14.422 3.87389L14.458 4.04317L14.5836 3.9246L14.7298 3.97174L14.7149 3.80817L14.8455 3.69531C14.8455 3.69531 14.6733 3.63531 14.6733 3.63246C14.6761 3.63246 14.6486 3.47531 14.6458 3.47531C14.6429 3.47531 14.5201 3.57817 14.5201 3.57817L14.3479 3.52531Z" fill="#FBFC2B"/>
<path id="Fill 258" fill-rule="evenodd" clip-rule="evenodd" d="M14.3926 3.55548L14.4516 3.78248L14.2476 3.96348L14.5016 4.02848L14.5526 4.25648L14.7246 4.10048L14.9376 4.16648L14.9006 3.94648L15.0896 3.78248C14.8496 3.70548 14.8496 3.70548 14.8456 3.70148C14.8456 3.69048 14.8146 3.49148 14.8106 3.47948C14.8106 3.49148 14.6406 3.62948 14.6406 3.62948L14.3926 3.55548ZM14.5446 4.28548L14.4926 4.03548L14.2406 3.96348L14.4376 3.77848L14.3866 3.54948L14.6406 3.61648C14.8106 3.46948 14.8106 3.46948 14.8146 3.46948C14.8226 3.47748 14.8656 3.69648 14.8576 3.70348C14.8726 3.70548 15.0976 3.78248 15.0976 3.78248L14.9156 3.95148L14.9416 4.17248L14.7246 4.11248L14.5446 4.28548Z" fill="#F4C627"/>
<path id="Fill 260" fill-rule="evenodd" clip-rule="evenodd" d="M14.3505 3.5295L14.7296 3.97021L14.5821 3.92307L14.5411 3.75807C14.5411 3.75807 14.4635 4.04021 14.4635 4.03878C14.4635 4.03593 14.4247 3.87807 14.4247 3.87378L14.5411 3.75664C14.5411 3.75664 14.2461 3.81807 14.2461 3.81664C14.2482 3.81664 14.3894 3.69378 14.3894 3.69378L14.3505 3.5295Z" fill="#F4C627"/>
<path id="Fill 262" fill-rule="evenodd" clip-rule="evenodd" d="M14.5202 3.57823L14.5477 3.75251L14.6486 3.47251L14.5202 3.57823Z" fill="#F4C627"/>
<path id="Fill 264" fill-rule="evenodd" clip-rule="evenodd" d="M14.6705 3.6328C14.6705 3.63566 14.5477 3.74994 14.5477 3.74994C14.5682 3.74423 14.8456 3.69566 14.8427 3.69566C14.8427 3.69566 14.6733 3.63709 14.6705 3.6328Z" fill="#F4C627"/>
<path id="Fill 266" fill-rule="evenodd" clip-rule="evenodd" d="M9.80371 3.53512C10.0035 3.43869 10.2287 3.36369 10.4644 3.33012C10.6917 3.29798 10.9176 3.29655 11.1519 3.29655C11.1519 3.29655 11.1809 3.65655 11.1809 3.65941C10.9988 3.66226 10.8625 3.65941 10.5385 3.69941C10.2159 3.74583 10.0847 3.78369 9.89053 3.86012L9.80371 3.53512Z" fill="#CB0028"/>
<path id="Fill 268" fill-rule="evenodd" clip-rule="evenodd" d="M11.1466 3.29877L11.1063 3.30677C10.8656 3.30677 10.6666 3.31277 10.464 3.35377C10.2438 3.39677 10.0242 3.48977 9.80681 3.64077L9.89363 4.07777C10.0849 3.97277 10.219 3.91777 10.5388 3.85777C10.8325 3.80277 10.9729 3.80277 11.1325 3.80277H11.1812C11.1755 3.79877 11.1466 3.29877 11.1466 3.29877ZM9.88799 4.09577L9.79834 3.63677C10.0214 3.48077 10.2438 3.38277 10.464 3.33777C10.6666 3.29877 10.8656 3.29077 11.1063 3.29077H11.1522C11.1579 3.29877 11.1882 3.80277 11.1882 3.80677L11.1325 3.81677C10.9729 3.81677 10.8353 3.81677 10.5388 3.87077C10.2162 3.93577 10.0849 3.98777 9.89081 4.09377L9.88799 4.09577Z" fill="#D30028"/>
<path id="Fill 270" fill-rule="evenodd" clip-rule="evenodd" d="M9.97466 4.17553C9.97184 4.17553 10.0777 4.55767 10.0777 4.55767C10.2669 4.5091 10.461 4.47267 10.6587 4.44339C10.8528 4.41696 11.0624 4.39982 11.2502 4.38767L11.217 4.01339C11.0173 4.0041 10.7893 4.0041 10.5838 4.0291C10.3798 4.05839 10.1801 4.10553 9.97466 4.17553Z" fill="#CB0028"/>
<path id="Fill 272" fill-rule="evenodd" clip-rule="evenodd" d="M10.9674 4.0145C10.8298 4.0145 10.6999 4.0265 10.587 4.0475C10.3858 4.0825 10.1874 4.1535 9.97778 4.2505C9.9806 4.2625 10.0399 4.5655 10.0794 4.7725C10.2615 4.7075 10.4571 4.6535 10.659 4.6145C10.8559 4.5735 11.0684 4.5515 11.2498 4.5355L11.2117 4.0185C11.1368 4.0185 11.0528 4.0145 10.9674 4.0145ZM10.0724 4.7855L10.0702 4.7845C9.96789 4.2465 9.96789 4.2435 9.97072 4.2395C10.1832 4.1375 10.383 4.0715 10.5841 4.0325C10.7691 4.0005 11.0062 3.9945 11.2173 4.0105L11.254 4.5415C11.0684 4.5655 10.8587 4.5865 10.659 4.6275C10.4571 4.6665 10.2615 4.7215 10.078 4.7855H10.0724Z" fill="#D30028"/>
<path id="Fill 274" fill-rule="evenodd" clip-rule="evenodd" d="M9.05644 5.35693H14.6301V8.97265C14.4896 10.3791 13.1541 11.4326 11.928 11.4241C10.6101 11.4826 9.15174 10.3891 9.04797 8.95908L9.05644 5.35693Z" fill="white"/>
<path id="Fill 276" fill-rule="evenodd" clip-rule="evenodd" d="M14.6126 5.35693L9.0566 5.37622L9.06789 8.95907C9.17519 10.4405 10.6794 11.4591 11.9281 11.4034C13.0893 11.4034 14.4665 10.4041 14.6126 8.9705V5.35693ZM11.8307 11.4476C10.5898 11.4476 9.13354 10.4255 9.02625 8.95907L9.03895 5.35693L14.6302 5.33765L14.6514 8.97265C14.5053 10.4298 13.1041 11.4448 11.9437 11.4448C11.8964 11.4448 11.8611 11.4476 11.8307 11.4476Z" fill="#CB0028"/>
<path id="Fill 278" fill-rule="evenodd" clip-rule="evenodd" d="M9.17501 5.48267H14.5143V8.94838C14.3795 10.297 13.0976 11.3055 11.9251 11.2977C10.6609 11.3548 9.26324 10.307 9.16089 8.93695L9.17501 5.48267Z" fill="#CB0028"/>
<path id="Fill 280" fill-rule="evenodd" clip-rule="evenodd" d="M14.494 5.48266L9.1752 5.50195L9.18226 8.93695C9.28673 10.3555 10.7331 11.3298 11.9253 11.2777C13.0378 11.2777 14.3592 10.322 14.494 8.94552V5.48266ZM11.8307 11.3198C10.6406 11.3198 9.24649 10.3434 9.14343 8.93695L9.15331 5.48266L14.5145 5.46338L14.5328 8.94838C14.3945 10.3448 13.0533 11.317 11.938 11.317C11.8936 11.3184 11.8611 11.3198 11.8307 11.3198Z" fill="#CB0028"/>
<mask id="mask0_7_1217" style="mask-type:luminance" maskUnits="userSpaceOnUse" x="0" y="0" width="24" height="15">
<path id="Clip 283" fill-rule="evenodd" clip-rule="evenodd" d="M0 14.6986H23.6894V0.713623H0V14.6986Z" fill="white"/>
</mask>
<g mask="url(#mask0_7_1217)">
<path id="Fill 282" fill-rule="evenodd" clip-rule="evenodd" d="M10.2487 6.6557H11.3103V5.49927H10.2487V6.6557Z" fill="white"/>
<path id="Fill 284" fill-rule="evenodd" clip-rule="evenodd" d="M13.4435 8.97314V10.1146L14.0421 10.1174C14.3315 9.67743 14.4557 9.24957 14.4847 8.97314H13.4435Z" fill="white"/>
<path id="Fill 285" fill-rule="evenodd" clip-rule="evenodd" d="M13.4435 8.97729L13.4477 10.1144L14.0393 10.1116C14.3979 9.56729 14.4663 9.10157 14.479 8.973L13.9369 8.97729H13.4435ZM14.0449 10.123L13.4435 10.1201L13.4379 8.973L13.9369 8.96729H14.4847C14.4762 9.10443 14.4056 9.573 14.047 10.1201L14.0449 10.123Z" fill="white"/>
<path id="Fill 286" fill-rule="evenodd" clip-rule="evenodd" d="M12.3805 10.1255V11.2219C12.8407 11.1298 13.2177 10.8969 13.4323 10.7391L13.4294 10.1255H12.3805Z" fill="white"/>
<path id="Fill 287" fill-rule="evenodd" clip-rule="evenodd" d="M13.4241 10.1256L12.3801 10.1327L12.3829 11.2177C12.8284 11.127 13.1968 10.9042 13.4298 10.7363L13.4241 10.1256ZM12.3766 11.2306V10.1256L13.4298 10.1199L13.4382 10.7392C13.1996 10.9149 12.8284 11.137 12.3829 11.2292L12.3766 11.2306Z" fill="white"/>
<path id="Fill 288" fill-rule="evenodd" clip-rule="evenodd" d="M10.256 10.1255L10.2588 10.7391C10.6202 10.9976 11.0353 11.1548 11.3092 11.2119L11.3063 10.1269L10.256 10.1255Z" fill="white"/>
<path id="Fill 289" fill-rule="evenodd" clip-rule="evenodd" d="M11.301 10.1268L10.2563 10.1326L10.2641 10.739C10.6283 10.9976 11.0391 11.1497 11.3038 11.2068L11.301 10.1268ZM11.3137 11.219L11.3095 11.2176C11.042 11.1618 10.6255 11.0068 10.2563 10.7433L10.2521 10.1254L11.3067 10.1226L11.3137 11.219Z" fill="white"/>
<path id="Fill 290" fill-rule="evenodd" clip-rule="evenodd" d="M9.19434 8.97314C9.22751 9.421 9.42728 9.81886 9.62422 10.1017L10.2433 10.1146V8.97314H9.19434Z" fill="white"/>
<path id="Fill 291" fill-rule="evenodd" clip-rule="evenodd" d="M10.2394 8.97324L9.19473 8.97753C9.23568 9.47824 9.48415 9.89396 9.63026 10.0975L10.2394 10.109V8.97324ZM10.2493 10.1197H10.2437L9.62462 10.1061C9.47568 9.89967 9.22509 9.47967 9.18909 8.97324L10.2437 8.96753L10.2493 10.1197Z" fill="white"/>
<path id="Fill 292" fill-rule="evenodd" clip-rule="evenodd" d="M9.18774 7.81076H10.2494V6.65576H9.18774V7.81076Z" fill="white"/>
<path id="Fill 293" fill-rule="evenodd" clip-rule="evenodd" d="M11.3103 7.81076H12.3734V6.65576H11.3103V7.81076Z" fill="white"/>
<path id="Fill 294" fill-rule="evenodd" clip-rule="evenodd" d="M12.3734 6.65012H13.4351V5.49512H12.3734V6.65012Z" fill="white"/>
<path id="Fill 295" fill-rule="evenodd" clip-rule="evenodd" d="M13.4379 7.81076H14.4995V6.65576H13.4379V7.81076Z" fill="white"/>
<path id="Fill 296" fill-rule="evenodd" clip-rule="evenodd" d="M10.2487 8.96579H11.3103V7.81079H10.2487V8.96579Z" fill="white"/>
<path id="Fill 297" fill-rule="evenodd" clip-rule="evenodd" d="M12.3734 8.96579H13.4351V7.81079H12.3734V8.96579Z" fill="white"/>
<path id="Fill 298" fill-rule="evenodd" clip-rule="evenodd" d="M11.3103 10.123H12.3734V8.96655H11.3103V10.123Z" fill="white"/>
<path id="Fill 299" fill-rule="evenodd" clip-rule="evenodd" d="M12.8947 4.13491C12.889 4.14062 12.8819 4.08491 12.8798 4.07633C12.8756 4.05991 12.8671 4.03562 12.8587 4.00133C12.8848 4.04276 12.9003 4.09133 12.8947 4.13491Z" fill="#C2A21F"/>
<path id="Fill 300" fill-rule="evenodd" clip-rule="evenodd" d="M12.8947 4.14045C12.8876 4.14045 12.8848 4.13473 12.8799 4.09616L12.8531 4.00402C12.8891 4.03973 12.906 4.09187 12.9003 4.13616L12.8947 4.14045Z" fill="#C2A21F"/>
</g>
</g>
</g>
</svg>
